<svg xmlns="http://www.w3.org/2000/svg" viewBox="0 0 215.4452515 44.197403"><path class="i-logo" d="M27.306 20.28c-.208.03-.422.05-.482.273-.008.032-.061.068-.102.079-.394.105-.732.31-1.113.437-.892.297-1.782.598-2.677.887-.233.075-.041.057.011.09.102.066.024.13-.042.143-.262.055-.484.198-.739.254-.49.107-.93.313-1.388.481-.975.36-1.986.604-3.013.835-1.23.278-2.481.469-3.716.724-.529.11-1.066.228-1.623.214-.092-.003-.186.016-.278.033-.63.112-1.268.158-1.906.213-.755.065-1.508.08-2.263.062-.581-.015-1.161-.05-1.742-.076-.096-.004-.185-.013-.253-.084-.025-.027-.082-.053-.12-.048-.668.082-1.294-.138-1.936-.218-.521-.065-1.06-.074-1.566-.212-.592-.162-1.234-.197-1.767-.507-.049-.028-.116-.037-.177-.047-.09-.015-.212-.012-.188-.123.017-.083.123-.111.22-.125.354-.052.682.094 1.026.096.446.001.877.172 1.332.07.068-.016.178-.006.224.031.185.15.41.114.626.119.268.005.537.002.805 0 .629-.004 1.248.087 1.872.13.545.038 1.095.035 1.642.03a17.447 17.447 0 0 0 2.852-.23c.073-.012.155.006.231.013.263.025.521.005.774-.054.222-.052.43-.167.679-.078.044.015.119-.023.177-.042 1-.334 2.062-.452 3.103-.645.352-.065.691-.185 1.06-.18.536-.266 1.157-.323 1.727-.506 1.13-.365 2.26-.725 3.39-1.089 1.306-.421 2.616-.832 3.913-1.27 1.69-.572 3.376-1.156 5.053-1.756.65-.233 1.268-.533 1.909-.787.442-.175.744-.489 1.077-.763.327-.268.682-.505 1.02-.76.104-.079.224-.147.319-.235a7.367 7.367 0 0 1 1.245-.914c.183-.11.282-.278.448-.404.47-.356 1.018-.627 1.472-.998a.898.898 0 0 0 .252-.28l-.005.005c.253-.01.454-.074.479-.325l-.005.004c.362-.004.583-.226.847-.386.415-.252.763-.58 1.229-.775.07-.03.155-.055.198-.105.31-.355.805-.488 1.205-.734.595-.365 1.247-.667 1.762-1.122.256-.227.608-.326.915-.483.346-.176.626-.428.996-.575.107-.042.185-.138.318-.158.096-.014.107-.085.113-.153l-.006.004c.078-.009.159-.01.232-.03.051-.014.144-.057.074-.106-.192-.136-.057-.197.066-.265.422-.232.832-.482 1.27-.689.687-.324 1.32-.718 1.988-1.067a10.132 10.132 0 0 1 1.579-.681c.173-.056.398-.035.538-.12.347-.212.797-.105 1.14-.305.082-.048.18.005.268.035.101.035.218.106.307.088.555-.116 1.088.205 1.654.033.225-.069.493.043.72.132.213.083.415.187.615.29.19.1.238.29.101.44a1.11 1.11 0 0 1-.312.24c-.664.34-1.201.812-1.791 1.228-1.01.712-2.004 1.44-3.078 2.087-.435.26-.842.56-1.287.808-.891.498-1.74 1.049-2.69 1.473-.36.162-.742.309-1.044.556-.055.045-.13.073-.196.108-.006.003-.529.299-.534.3l-.092.013c-.006-.01-.01-.022-.02-.03-.004-.006-.017-.006-.026-.009l.051.034c-.106.075-.206.156-.318.223-.199.117-.387.258-.667.194-.122-.028-.197.059-.249.145l-.002.002c-.071.03-.067.057.004.082l-.005-.004c-.046.115-.146.161-.284.16l.005.004-.006-.085c.013-.004.028-.005.04-.012.007-.003.009-.014.013-.021l-.048.038-.099.079.003-.003c-.19.036-.367.092-.477.243l.005-.003c-.177.057-.416.041-.422.29-.001.057-.098.112-.184.088-.23-.064-.421.067-.557.152-.277.173-.603.276-.861.469-.058.043-.136.095-.204.094-.398-.005-.68.258-1.055.312-.238.034-.374.236-.594.317-.208.076-.434-.05-.636.071-.19.114-.446.136-.608.295l.006-.005c-.252.042-.467.163-.68.268-.37.184-.78.314-1.103.568-.323.253-.677.478-.984.744-.287.249-.613.459-.924.68-.196.139-.35.29-.482.465l.005.004c-.03-.07-.064-.057-.098-.002-.098.027-.26.028-.093.163l-.004-.004c-.147.301-.424.49-.77.607-.134.045-.262.08-.325.203-.124.244-.373.4-.582.58-.428.371-.855.74-1.217 1.161-.23.268-.51.507-.777.75-.846.772-1.633 1.586-2.445 2.382-.34.332-.7.649-1.037.983-.479.476-.945.961-1.414 1.445a.61.61 0 0 0-.113.174c-.027.06.005.11.086.105.338-.026.648.056.957.156a.86.86 0 0 0 .553-.02c.364-.126.728-.25 1.09-.381a43.046 43.046 0 0 0 2.999-1.245c1.135-.514 2.276-1.017 3.389-1.565.958-.473 1.943-.906 2.913-1.36 1.72-.807 3.471-1.563 5.222-2.317.938-.404 1.917-.738 2.88-1.1.112-.043.248-.042.164-.21-.056-.112.076-.168.187-.179.171-.018.346-.016.52-.02.108-.002.223.02.318-.046.307-.21.603-.062.793.1.315.271.665.19.996.138.124-.02.21-.005.313.012.398.062.804.031 1.206.115.465.098.788.37 1.17.567.087.046.11.136.087.216-.055.191-.098.384-.275.539-.47.413-1 .771-1.499 1.158-.522.404-1.145.706-1.63 1.15-.05.045-.103.196-.24.048-.045-.05-.111.021-.141.061-.152.207-.363.369-.562.539-.373.318-.389.742-.469 1.143-.03.146.078.208.27.198.093-.004.187-.02.276-.044.943-.25 1.886-.497 2.826-.753.253-.069.493-.173.745-.246.533-.152 1.073-.28 1.593-.471.43-.159.912-.21 1.362-.334.379-.104.747-.221 1.086-.425.287-.172.65-.282.999-.342.344-.059.655-.18.983-.269.55-.148 1.093-.319 1.645-.465a.565.565 0 0 0 .353-.237c.18-.261.358-.522.532-.786.424-.645 1.052-1.154 1.674-1.663.224-.184.46-.356.692-.534l-.005.004c.104-.06.205-.122.311-.18.125-.067.287-.09.222-.287-.033-.102.122-.212.243-.204.341.026.543-.165.757-.32.62-.452 1.276-.857 1.992-1.192.14-.065.25-.158.347-.266.124-.138.272-.252.489-.275l-.005-.004c.066.094.131.082.197 0l-.005.004c.331-.017.55-.244.849-.325.083-.022.018-.086.025-.13.019-.125.08-.216.239-.093.11.086.212.066.267-.035.185-.345.549-.352.888-.3.772.119 1.535.281 2.236.593.213.094.338.269.47.438.382.487.37.6-.263.996-.611.382-1.31.632-1.95.969-.267.14-.52.304-.8.418-.27.11-.368.363-.632.467-.387.153-.689.41-1.04.608-.014.004-.03.007-.04.014-.007.004-.008.016-.012.024l.046-.043c.062.015.194-.006.114.098-.086.111-.222.182-.362.249-.817.396-1.643.778-2.481 1.142-.337.147-.68.298-1.005.476-.35.193-.757.32-1.155.44-.336.102-.556.267-.695.545a13.87 13.87 0 0 0-.569 1.304 2.18 2.18 0 0 1-.097.223c-.008.017-.04.026-.061.039-.011-.025-.027-.048-.032-.073-.011-.05.008-.107-.045-.148-.018.036-.035.073-.056.107-.028.048-.05.099-.09.139-.245.255-.247.272-.034.52.121.14.12.14-.158.234-.005-.011-.007-.024-.014-.033-.005-.006-.017-.008-.025-.011l.045.039c.155.235.401.318.71.319 1.013.002 2-.116 2.953-.422.072-.023.148-.046.224-.054a6.46 6.46 0 0 0 1.485-.343c.583-.21 1.201-.301 1.784-.49 1.086-.354 2.167-.718 3.246-1.084.466-.158.915-.353 1.386-.498.87-.268 1.714-.587 2.573-.877a70.6 70.6 0 0 0 1.222-.422c.223-.08.39-.186.431-.427.034-.19.218-.353.311-.533.39-.751.94-1.405 1.599-2a.414.414 0 0 0 .138-.202c.013-.07-.266-.058-.103-.207.074-.068.126-.154.204-.219.088-.074.2-.129.291-.2.336-.262.643-.548 1.017-.776.804-.49 1.582-1.01 2.41-1.47.234-.13.486-.238.725-.362.206-.107.47-.153.537-.406.021-.083.161-.058.254-.061l-.006-.005c.034.075.068.06.102 0l-.005.005c.09-.012.086-.152.216-.112.123.038.217-.03.302-.08.121-.072.232-.241.332-.234.229.018.232-.16.351-.207.196-.078.331-.343.641-.158.077.046.284-.017.286-.166 0-.086.044-.124.113-.148.503-.18.95-.469 1.499-.556.584-.092 1.172-.183 1.76-.011.044.013.096.046.132.037.324-.089.605.069.902.116.264.043.52.097.79.063a.549.549 0 0 1 .273.046c.566.221 1.04.537 1.3 1.024.074.136.24.365-.141.46-.077.02-.092.213-.136.326l.005-.004c-.38.318-.78.615-1.212.878-.969.59-1.986 1.115-3.01 1.632-.027.013-.06.022-.082.04-.717.581-1.65.845-2.5 1.23-.387.174-.758.372-1.158.526-.672.26-1.318.567-2.006.798-.395.132-.746.345-1.154.459-.212.06-.307.303-.579.289-.183.204-.458.268-.729.337-.015.003-.028.011-.043.016-.796.285-.851.35-1.218 1.02a8.56 8.56 0 0 0-.611 1.419 7.738 7.738 0 0 0-.36 1.641c-.019.177-.1.333-.133.502-.068.342.071.521.459.513.818-.017 1.634-.065 2.39-.365.136-.053.246.012.363 0a10.803 10.803 0 0 0 2.327-.478c.732-.24 1.483-.412 2.225-.615.537-.148 1.062-.318 1.545-.584.658-.362 1.354-.675 2.023-1.024.427-.222.83-.475 1.252-.705.264-.144.54-.273.812-.405.736-.356 1.466-.72 2.21-1.062.62-.286 1.24-.57 1.868-.843.81-.355 1.65-.655 2.472-.986 1.177-.474 2.393-.87 3.61-1.261a56.284 56.284 0 0 1 3.164-.912c.75-.194 1.51-.359 2.258-.556a78.077 78.077 0 0 1 1.987-.49c1.569-.372 3.141-.734 4.72-1.07a39.222 39.222 0 0 1 2.753-.484c.68-.095 1.372-.162 2.067-.103.23.02.45.065.643.205.26.188.546.354.833.514a.487.487 0 0 1 .273.397c.033.33-.031.666.088.993.036.1-.065.173-.143.239-.399.338-.8.674-1.197 1.014-.088.075-.164.16-.245.242l-.015.014-.08.068-.013.01c-.114.082-.105.254-.295.283a.234.234 0 0 0-.116.067c-.19.188-.378.38-.567.569.293.01.525-.142.784-.219.682-.2 1.353-.427 2.035-.63.77-.228 1.563-.368 2.387-.358.11 0 .214-.014.316.032.392.177.823.247 1.25.328.434.083.718.342.92.642.117.172.258.372.21.602-.008.038-.01.09.015.117.246.28.075.554-.011.827-.065.205-.178.398-.193.615a.37.37 0 0 1-.083.182c-.08.106-.243.174-.156.346.017.034-.11.118-.166.181-.127.143-.343.241-.307.467.006.036-.067.085-.109.124-.533.504-1.065 1.01-1.6 1.511-.352.329-.804.556-1.196.844-.166.121-.344.231-.516.347-.419.284-.968.384-1.37.694a.208.208 0 0 1-.13.036c-.331-.034-.57.121-.807.276-.254.166-.573.174-.854.183-.355.01-.666.112-.98.206-.322.095-.61.27-.979.15-.06-.02-.159.01-.225.04-.526.237-1.121.16-1.676.263-.137.025-.276.04-.413.075-.118.03-.255.067-.367.043-.424-.09-.806.045-1.198.13-.18.039-.337.102-.545.04-.168-.05-.364.036-.54.088-.163.048-.323.104-.484.156-.044.014-.1.038-.123-.008-.011-.023.025-.07.052-.097.079-.078.073-.173.081-.265.076-.006.156-.004.191-.08.266.009.508-.03.663-.24.322.011.596-.06.758-.32.014-.004.03-.006.042-.013.007-.004.007-.017.01-.026l-.048.042c-.293.039-.553.132-.757.321-.24.043-.48.084-.662.24-.077.005-.155.007-.191.081-.215.037-.431.07-.645.11-.368.07-.735.165-1.115.127a1.155 1.155 0 0 0-.824.23c-.119.087-.22.188-.404.177-.14-.009-.218.097-.306.17-.147.122-.298.24-.428.374-.11.11-.265-.101-.378.068-.082.122-.22.222-.323.34a2.071 2.071 0 0 1-.33.287c-.18.135-.3.347-.612.317-.063-.006-.145.093-.212.15-.478.402-.954.806-1.43 1.209-.09.075-.174.158-.275.22-.14.087-.278.154-.32.323-.024.09-.146.17-.238.241-.908.707-1.623 1.545-2.319 2.399-.19.233-.39.487-.717.618a.472.472 0 0 0-.201.16c-.545.683-1.094 1.363-1.643 2.043a.72.72 0 0 1-.153.152c-.09.06-.173.094-.137-.066.02-.09-.048-.123-.14-.07-.048.03-.082.079-.116.123-.287.364-.573.728-.856 1.094-.026.033-.042.086-.09.077-.283-.053-.237.142-.287.265l.005-.004c-.113.043-.17.095-.122.216.034.086.005.092-.208.15a.198.198 0 0 0-.103.062c-.137.194-.275.388-.4.588-.613.99-1.233 1.977-1.83 2.973-.284.473-.527.963-.783 1.448-.172.326-.332.657-.614.93-.066.063-.087.138-.12.213-.08.18-.092.186-.326.066-.095-.049-.141-.016-.201.027-.113.08-.226.088-.336-.003-.142-.117-.35-.112-.509-.2-.364-.201-.422-.376-.196-.694.122-.171.209-.358.306-.536.299-.545.695-1.039 1.047-1.555.457-.668 1.05-1.258 1.532-1.91.466-.63.913-1.27 1.37-1.906a67.3 67.3 0 0 1 2.356-3.066c.48-.59 1.038-1.132 1.486-1.734.485-.653 1.075-1.234 1.592-1.862.242-.294.556-.531.787-.832.23-.298.54-.547.838-.804.235-.202.441-.439.662-.66a41.8 41.8 0 0 1 1.502-1.428c.533-.483 1.107-.929 1.66-1.394 1.022-.862 2.099-1.673 3.178-2.482.3-.225.574-.495.818-.77.354-.397.815-.704 1.2-1.074a.486.486 0 0 1 .241-.117c.364-.078.593-.279.705-.578.02-.052.043-.094.103-.124.51-.255.846-.655 1.226-1.026.324-.315.635-.646.999-.933.331-.261.64-.54.89-.86.142-.182.305-.367.526-.446.387-.138.446-.463.662-.695.018-.018.03-.065.02-.073-.346-.24.027-.337.15-.445.294-.26.544-.548.82-.82.04-.039.1-.07.05-.128-.045-.051-.121-.048-.175-.033-.538.152-1.114.14-1.656.274-.015.004-.031.017-.044.014-.467-.094-.853.165-1.29.215-.463.053-.912.191-1.367.293-.44.1-.873.227-1.319.294-.741.11-1.452.32-2.188.451-1.009.18-2.02.365-3.004.65-.604.174-1.23.306-1.836.48-.874.25-1.74.517-2.61.777v-.085c.014-.004.029-.005.04-.012.008-.003.01-.014.013-.022l-.047.038-.066.04.066.036c-.32.168-.685.257-1.009.412-.253.12-.581-.088-.807.19-.159.196-.492.216-.74.325-.711.313-1.46.556-2.174.865-.6.259-1.188.538-1.787.797-.163.071-.315.162-.514.183-.144.015-.316.072-.408.16-.342.33-.853.434-1.241.697-.11.075-.23.14-.345.209-.229.14-.411.388-.77.219-.035-.016-.13.056-.195.088-.513.258-1.03.51-1.536.777a1.747 1.747 0 0 1-.427.15c-.176.042-.373.069-.498.21a.221.221 0 0 1-.112.071c-.454.087-.783.378-1.211.516-.331.106-.634.286-.928.46-.146.085-.28.155-.457.187a1.539 1.539 0 0 0-.513.188c-.378.222-.827.324-1.241.485-.042.017-.098.038-.135.028-.35-.1-.665.102-1.007.081a.654.654 0 0 0-.467.165.926.926 0 0 1-.351.196c-.84.25-1.685.487-2.585.526-.032.002-.067-.004-.094.005-.75.262-1.477.057-2.21-.07a1.675 1.675 0 0 1-.515-.186c-.507-.27-.938-.62-1.36-.974-.201-.17-.345-.387-.327-.64.014-.179-.093-.33-.096-.508-.006-.39.09-.766.14-1.147.013-.093.045-.184.053-.276.016-.172-.009-.179-.194-.136-.609.14-1.154.421-1.761.561-.44.102-.862.235-1.26.424-.04.02-.089.045-.13.04-.486-.054-.883.162-1.318.282-.306.084-.613.187-.942.23-.175.022-.432.001-.479.242-.004.023-.088.06-.113.05-.315-.129-.584.045-.854.111-.463.114-.943.201-1.371.404a.274.274 0 0 1-.22.01c-.157-.049-.279-.064-.378.114-.05.09-.269.064-.412.06-.076-.001-.182-.048-.219.008-.15.234-.432.181-.66.229-.509.106-1.025.188-1.537.282-.183.034-.368.067-.547.115-.5.134-1.005.123-1.515.063-.323-.038-.64-.067-.962-.137-.474-.103-.807-.352-1.158-.582-.276-.182-.572-.363-.724-.665-.124-.248-.212-.468-.162-.757.04-.23.08-.45.183-.664.026-.054.02-.105-.04-.14-.057-.033-.115-.021-.177.002-1.144.441-2.343.738-3.555 1.013-.59.134-1.158.334-1.736.505-.77.226-1.54.456-2.312.677-.145.042-.29.113-.455.081l.004.005.089-.165c.034-.022.122.033.107-.049-.002-.011-.083.011-.102.054-.31.02-.588.117-.857.24l.006-.005c-.075.012-.157.012-.196.085l.004-.004c-.132.015-.283-.033-.383.085l.005-.005c-.079.004-.158.005-.235.016-.017.002-.12-.023-.056.05.015.017.06.011.089.022.05.019.067.046.002.066-.088.027-.179.07-.269.07-.468.003-.935.071-1.405.04-.047-.004-.095-.019-.14-.014-.54.059-.917-.224-1.3-.465-.308-.194-.435-.481-.37-.813.017-.092.062-.182.063-.273 0-.377.186-.68.495-.939L45.867 23c.034.061.068.063.102 0l-.005.004c.13-.052.071-.163.11-.244.069-.144.108-.316.35-.33l.03.021c.03.05.053.031.073-.005l.014-.01c.18-.139.437-.2.558-.397.013-.006.027-.01.037-.017.007-.005.007-.015.01-.023l-.041.044c-.016 0-.033.004-.047 0-.168-.036-.267.223-.34.135-.11-.131.136-.202.232-.277a62.43 62.43 0 0 1 1.733-1.295c.083-.06.171-.112.235-.19.068-.085.282-.116.227-.224-.06-.121-.218.01-.337.003-.201-.01-.38-.021-.581-.099a1.661 1.661 0 0 0-1.09-.056c-.741.224-1.454.5-2.163.785-.924.372-1.825.782-2.735 1.175-1.217.524-2.439 1.04-3.625 1.611-.437.21-.872.425-1.314.628-.105.048-.234.093-.195.238.007.024-.04.083-.073.088-.314.058-.507.313-.826.358l.005.005c.016-.037.05-.077.044-.112-.008-.047-.065-.038-.107-.025-.029.009-.054.035-.083.037-.197.015-.135.212-.276.274-.136.059-.296-.04-.432.085-.09.083-.246.099-.227.265.008.067-.13.104-.214.141-.64.286-1.279.573-1.92.858-.375.166-.753.328-1.046.598-.173.16-.389.272-.61.372a14.23 14.23 0 0 1-2.482.865c-.317.077-.302.074-.25.379.09.527-.022 1.032-.294 1.512-.303.536-.63 1.064-.904 1.611-.411.818-.824 1.642-1.36 2.4-.529.749-1.026 1.515-1.633 2.229-.718.843-1.544 1.607-2.292 2.427-.554.607-1.103 1.223-1.714 1.792-.241.224-.457.468-.71.68-.382.318-.84.453-1.374.29-.044-.014-.092-.05-.13-.044-.347.064-.623-.105-.933-.172-.578-.126-1.034-.45-1.59-.598-.095-.025-.173-.075-.207-.152-.173-.394-.386-.78-.39-1.213a.497.497 0 0 1 .039-.193c.013-.032.065-.051.1-.076.016.033.046.065.049.098.014.173.018.346.036.518.003.03.052.075.087.082.064.012.056-.044.059-.077a.733.733 0 0 0 .003-.16c-.057-.46.027-.914.068-1.371.056-.615.273-1.19.456-1.778.35-1.122.906-2.172 1.52-3.204.338-.57.702-1.13 1.124-1.657.41-.513.76-1.066 1.273-1.52.056-.05.078-.11.115-.166.211-.31.453-.601.733-.875.304-.299.547-.641.826-.96a35.158 35.158 0 0 1 1.88-1.98c.477-.465.939-.937 1.376-1.43.241-.273.508-.535.776-.794l.002-.001c.215-.12.349-.302.502-.469.563-.612 1.19-1.177 1.786-1.765.622-.613 1.252-1.22 1.937-1.785.138-.114.246-.24.318-.39.012-.005.025-.008.035-.015.006-.004.008-.013.012-.02l-.041.04c-.32.081-.64.167-.962.243-.262.062-.47.215-.735.278-.254.06-.484.188-.737.252-.124.032-.266.18-.414.024.013-.004.028-.006.038-.012.007-.004.008-.015.012-.023l-.044.04zm9.852-5.529l-.095.08a.12.12 0 0 0-.095.08c-.012.004-.026.007-.037.013-.007.004-.008.014-.012.02l.044-.037c.047-.013.085-.035.094-.08a.117.117 0 0 0 .095-.08c.013-.005.026-.007.037-.013.007-.004.01-.012.014-.019l-.045.036zm52.387.08c-.012.004-.025.007-.035.012-.006.004-.01.012-.014.018l.043-.034c.012-.005.026-.009.037-.015.006-.004.009-.014.013-.02l-.044.04zm1.326-.881l-.095.08c-.048.012-.085.035-.095.08-.043.007-.09.007-.128.023-.046.02-.128.054-.093.098.043.054.102-.003.14-.035.03-.026.051-.06.076-.09.049-.013.084-.037.094-.081.054-.008.084-.036.095-.08.053-.01.086-.035.095-.081.123-.003.192-.05.19-.16.025-.024.063-.046.073-.074.01-.028-.024-.042-.035-.023-.017.031-.022.068-.033.102a.3.3 0 0 0-.189.16l-.095.08zm-12.41 4.087c-.053.008-.083.036-.095.08-.05.011-.082.036-.095.08a.103.103 0 0 0-.094.08l-.095.08c-.047.024-.111.067-.052.098.036.019.036-.064.046-.103.05-.011.083-.036.095-.08.056-.006.086-.034.095-.08.05-.01.083-.036.095-.08a.109.109 0 0 0 .095-.08c.014-.005.03-.008.041-.016.007-.004.005-.017.007-.027l-.043.048zm37.893-2.484a.118.118 0 0 0-.095.08c-.011.004-.024.007-.034.013-.006.004-.008.012-.012.018l.04-.036a.113.113 0 0 0 .095-.08c.013-.005.028-.008.039-.015.006-.005.006-.017.009-.025l-.042.045zm-28.893.4c-.013.004-.026.005-.037.01-.007.004-.01.013-.014.02l.045-.035.096-.08c.058-.014.12-.022.173-.043.034-.014.086-.048.048-.085-.024-.023-.083-.02-.126-.029.047-.091.14-.135.237-.184.647-.33 1.284-.672 1.877-1.07.37-.248.732-.503 1.034-.811.102-.104.068-.156-.1-.17-.302-.026-.594.025-.89.063-.744.097-1.467.25-2.168.484-1.209.403-2.267 1.03-3.363 1.602-.055.028-.127.061-.102.116.073.161-.09.212-.18.288-.313.264-.67.484-1.028.7-.335.2-.68.396-.933.668-.176.19-.372.361-.568.534-.164.144-.336.282-.501.425-.039.034-.118.07-.067.124.046.047.115-.016.172-.01.21.016.334-.127.498-.192 1.121-.451 2.235-.916 3.356-1.368.34-.137.65-.33 1.025-.4 0 .046-.084.082-.025.132.01.009.063-.002.075-.016.047-.057.01-.092-.055-.113.478-.327 1.043-.529 1.571-.782.039-.019.092-.016.139-.022l-.094.163-.095.081zM48.052 7.62c-.05.011-.085.034-.095.08-.08-.002-.153.007-.19.08-.04.008-.084.012-.121.027-.021.009-.005.034.032.034.047 0 .074-.028.084-.066.077-.003.156-.003.19-.08.05-.01.08-.039.094-.08.013-.004.026-.007.037-.014.006-.004.007-.013.01-.02l-.04.04zm-1.8 15.145c-.021.013-.094-.008-.043.05l.038-.054c.014-.004.03-.006.04-.014.006-.004.005-.017.007-.026l-.042.044zm1.232.562l-.095.08c-.011.005-.023.009-.032.016-.006.004-.007.013-.01.02l.037-.04.094-.081c.013-.005.028-.008.039-.015.007-.005.007-.016.01-.024l-.043.044zm73.133-2.645c-.05.011-.085.035-.095.08-.014.004-.03.006-.04.013-.007.004-.006.017-.008.026l.043-.043c.054-.008.084-.036.094-.08.051-.011.084-.037.096-.082.053-.008.084-.034.095-.08.134-.001.228-.05.264-.164.002-.008-.019-.03-.025-.028a.292.292 0 0 0-.235.197.11.11 0 0 0-.094.08l-.095.081zM22.19 28.534c-.013.004-.027.006-.038.013-.006.004-.006.015-.009.023l.042-.04c.015-.004.032-.005.043-.012.007-.005.005-.02.007-.03l-.045.046zm8.239-8.578c.055-.007.082-.038.093-.081a.281.281 0 0 0 .189-.16l.095-.081.095-.08a.497.497 0 0 0 .283-.24c.012-.004.026-.007.036-.014.006-.004.006-.015.008-.023l-.038.042c-.182.006-.278.084-.284.24-.052.008-.085.035-.094.08-.053.008-.085.036-.096.08-.138-.01-.192.05-.189.16-.055.007-.088.032-.096.079-.056.007-.086.035-.094.081-.18-.001-.273.117-.385.205-.765.605-1.38 1.326-2.11 1.957-.073.064-.107.16-.158.241-.162.065-.284.154-.283.322-.014.003-.03.004-.042.011-.007.004-.007.017-.01.026l.047-.041c.158-.067.277-.158.285-.32.125.006.193-.063.267-.135.657-.633 1.318-1.262 1.975-1.894.133-.128.322-.212.41-.375.054-.008.087-.033.096-.08zm46.606-.242c.013-.005.027-.008.037-.015.006-.004.006-.015.008-.023l-.039.043c-.013.004-.027.006-.037.014-.007.004-.006.016-.009.024l.04-.043zm.379-.561c.047-.027.115-.049.039-.108l-.033.113c-.013.004-.028.006-.038.013-.006.005-.006.016-.008.025l.04-.043zm11.274-3.846c.074-.008.15-.013.188-.08l.095-.08c.133-.005.236-.048.284-.16.014-.004.03-.005.04-.012.008-.004.009-.015.013-.023l-.048.039c-.14-.005-.235.048-.283.16-.049.012-.084.037-.095.08-.076.007-.158 0-.19.08-.04.007-.085.007-.123.02-.025.01-.011.038.026.039a.093.093 0 0 0 .093-.063zM22.47 22.118c.033-.024.122.028.105-.052-.002-.01-.083.013-.1.057-.04.007-.083.01-.12.022-.025.01-.01.04.023.033.035-.007.062-.039.092-.06zm65.554-6.49c.079 0 .149-.015.189-.08.012-.005.025-.01.036-.016.006-.004.009-.013.013-.02l-.044.04c-.076.004-.16-.005-.189.08-.013.003-.028.005-.04.011-.006.004-.007.016-.01.024l.045-.04zm-27.373 7.537c-.026.03-.06.057-.075.09-.013.033-.016.074.032.098.01-.025.024-.049.028-.074.007-.04.007-.079.01-.118.012-.005.026-.007.036-.014.006-.004.006-.016.008-.024l-.039.042zm-33.634-.005c.026-.012.058-.02.075-.038a.445.445 0 0 0 .09-.123c.011-.024-.031-.044-.05-.027a.612.612 0 0 0-.1.119c-.012.02-.007.049-.01.074-.052.009-.084.036-.095.08-.198-.007-.219.135-.284.24-.056.006-.086.034-.096.08-.204.127-.423.245-.474.48-.123.11-.362.122-.378.322-.112.033-.16.118-.21.198-.055.09-.182.134-.204.242.186.004.241-.125.322-.228.052-.066.096-.133.087-.217.228-.02.34-.139.38-.32a.88.88 0 0 0 .474-.48c.057-.006.084-.037.094-.081.182-.006.223-.131.284-.24l.095-.081zm15.35-11.775c-.18.02-.304.101-.377.24-.04.008-.084.011-.122.025-.024.009-.008.038.025.031.035-.008.062-.04.092-.06.19-.01.289-.12.378-.24a.287.287 0 0 0 .285-.161c.192-.006.289-.119.379-.24.025-.01.095.005.042-.052l-.039.056c-.183.015-.31.095-.377.24-.135.003-.24.044-.285.16zm44.62 1.198c.003.01.005.022.012.03.005.006.018.006.028.008l-.045-.035c.021-.06.11-.113.071-.177-.047-.08-.128-.036-.194-.006-.18.081-.363.16-.48.312.214.048.379-.072.565-.117.015-.004.028-.01.042-.015zM25.031 25.089c-.192.056-.285.206-.407.324-.217.21-.415.432-.615.654-.069.076-.2.127-.166.253.103-.053.235-.087.305-.163.297-.325.576-.661.86-.995.016-.02.012-.052.018-.078.011-.005.025-.01.034-.016.006-.005.007-.015.01-.022l-.039.043zm89.044-.406c.19-.057.392-.096.57-.173a26.42 26.42 0 0 0 2.54-1.262c.157-.089.312-.176.397-.326.211 0 .336-.14.482-.232.704-.45 1.362-.944 1.97-1.484.088-.077.304-.167.216-.248-.091-.084-.225.093-.336.152-.18.094-.371.216-.467.367-.073.116-.144.206-.277.233-.188.039-.303.15-.398.266-.092.113-.209.19-.33.276-.296.213-.66.367-.86.67a.607.607 0 0 0-.383.134c-.52.39-1.148.63-1.74.921-.432.212-.87.41-1.306.613-.035.017-.05.064-.073.098-.535-.06-.887.28-1.323.435-.037.013-.074.062-.04.093.024.021.097.032.126.017.402-.197.856-.311 1.232-.55zm-97.19 10.743c-.232.123-.295.342-.36.535-.186.561-.396 1.118-.539 1.69a5.03 5.03 0 0 0-.139 1.428c.002.043-.024.097.045.124.007-.039.02-.077.022-.116.01-.214-.014-.431.028-.64.15-.744.395-1.467.663-2.187.102-.276.3-.532.274-.839.09-.02.109-.092.14-.149.34-.624.631-1.266 1.04-1.863.045-.064.036-.154.052-.232.048-.032.115-.055.142-.097a30.182 30.182 0 0 1 2.324-3.05c.361-.419.713-.844 1.084-1.257.522-.58 1.06-1.15 1.587-1.727.075-.082.23-.199.143-.266-.08-.064-.146.107-.225.166-.26.195-.465.429-.667.667-.329.387-.67.768-1.015 1.146-.611.67-1.214 1.344-1.757 2.055-.495.646-.97 1.304-1.453 1.957-.093.125-.173.254-.158.41-.067.018-.086.071-.118.116-.376.52-.638 1.09-.954 1.635-.088.153-.171.314-.16.494zm1.51 2.799c.22.131.117.316.083.47a3.874 3.874 0 0 0-.072.99c.002.05.002.115.084.119a.172.172 0 0 0 .12-.05c.304-.366.785-.612.993-1.045.028-.058.108-.096.157-.148.422-.446.868-.878 1.258-1.343.472-.563.9-1.153 1.34-1.735.346-.459.7-.915.985-1.403.387-.661.768-1.326 1.14-1.993.377-.674.767-1.344 1.099-2.033.212-.44.422-.906.115-1.394-.092-.148-.454-.445-.589-.388-.24.102-.567.164-.679.378-.177.34-.477.593-.74.87-.45.475-.87.97-1.303 1.457a17.46 17.46 0 0 0-1.362 1.716 30.141 30.141 0 0 0-1.524 2.468c-.369.665-.624 1.36-.869 2.058-.114.327-.28.653-.23 1.01-.027.03-.063.057-.078.09-.015.033-.019.074.03.097.01-.024.022-.048.027-.074.007-.038.01-.078.014-.117zm90.229-12.264c.015-.002.032 0 .046-.005.62-.19 1.253-.355 1.855-.58.443-.165.89-.328 1.32-.526.346-.16.744-.282 1.15-.325a.964.964 0 0 0 .398-.112c.551-.33 1.226-.47 1.764-.819.019-.012.07-.012.083 0 .043.038-.01.065-.03.095-.016.022-.052.055-.045.066.03.041.081.031.123.01.149-.072.294-.151.446-.221a14.086 14.086 0 0 0 2-1.127c.954-.648 1.87-1.333 2.707-2.092a37.708 37.708 0 0 0 1.607-1.55c.116-.119.172-.282.246-.428.014-.028-.001-.086-.028-.107-.058-.047-.12-.01-.157.03-.107.113-.162.266-.348.312-.04.01-.103.008-.13-.013-.042-.031.007-.066.032-.095.08-.09.014-.13-.076-.103-.768.22-1.584.356-2.289.691-.757.36-1.561.629-2.327.97-.931.415-1.834.87-2.739 1.32-.418.208-.844.42-1.18.727-.845.77-1.686 1.54-2.528 2.313-.031.028-.045.072-.078.1-.324.266-.592.574-1.01.766-.324.15-.582.4-.867.607-.02.014-.036.054-.026.067.013.017.053.02.08.029zm-37.846-9.834c.013-.227-.205-.379-.455-.334-.127.023.143.178-.085.158-.124-.01-.252 0-.377.009a.3.3 0 0 0-.13.041c-.173.106-.383.138-.578.155-.319.027-.562.128-.766.335a.82.82 0 0 1-.314.17c-.751.251-1.387.666-2.038 1.05-1.145.676-2.174 1.479-3.275 2.203-.046.03-.076.081-.105.127a.088.088 0 0 0-.004.077c.024.048.077.043.116.02.249-.14.532-.212.805-.309.808-.289 1.587-.64 2.302-1.07.549-.33 1.136-.61 1.708-.9a18.123 18.123 0 0 1 1.615-.73 7.113 7.113 0 0 0 1.388-.748c.1-.068.195-.138.193-.254zM18.204 39.811h-.017l-.001-.199c0-.012-.012-.024-.018-.036-.013.014-.038.028-.039.041-.002.12 0 .24.003.359 0 .012.014.023.021.035.017-.014.047-.026.049-.041.006-.053.002-.106.002-.159zm98.726-24.687c.07-.027.14-.063.15-.13.008-.043-.038-.059-.086-.033-.06.033-.144.053-.135.133 0 .012.046.02.071.03zm-81.202.726c.07.003.105-.038.136-.081.002-.003-.039-.036-.047-.033a.608.608 0 0 0-.106.062c-.03.021-.023.04.017.052zm76.353 9.542c.07.003.11-.033.14-.079.006-.008-.02-.046-.033-.047a.14.14 0 0 0-.14.075c-.006.01.02.033.033.05zm-63.595-.04c-.062-.003-.105-.007-.147-.007-.013 0-.038.017-.037.019.02.042.066.039.106.034.021-.003.04-.022.078-.045zM50.643 6.3c-.003-.008-.004-.021-.01-.024a.062.062 0 0 0-.04-.003c-.037.014-.032.03.012.037.011.002.025-.006.038-.01zm28.034 10.81l.02.014.004-.021-.024.008z"/><path d="M166.372 13.067c-.029-.164.217-.239.184-.404.056-.007.085-.036.096-.08.093-.028.094-.094.093-.16.054-.009.083-.037.095-.08.013-.005.028-.008.038-.015.006-.004.006-.016.008-.024l-.04.043a.113.113 0 0 0-.095.08c-.084.031-.093.094-.094.16-.055.007-.084.036-.096.08-.35.297-.699.595-.951.962l.005-.005c-.053.012-.086.04-.101.085l.007-.005c-.055.01-.088.04-.102.086l.006-.006c-.761.482-1.37 1.092-1.995 1.688l.006-.005c-.116.043-.21.108-.304.182-.532.429-1.073.85-1.61 1.275a.432.432 0 0 0-.087.092c-.045.065-.06.118.065.132.83.097 1.663.1 2.498.085.204-.004.414.04.605.034.306-.01.63.09.933-.069.179-.093.413-.068.6-.026.304.069.58.038.88-.008.333-.052.682-.03 1.023-.05.626-.038 1.25-.094 1.875-.14.62-.047 1.247-.084 1.86-.205.181-.036.377-.022.566-.025.504-.007.991-.034 1.41-.335.158-.112.395-.144.537-.297.066-.071.154-.062.256-.04.346.076.699.13 1.044.207.251.056.292.195.132.38-.027.032-.042.077-.078.099-.59.363-.914.902-1.29 1.404-.107.144-.391.306-.232.465.125.125.36-.076.545-.133.5-.155 1.019-.237 1.543-.32.487-.076.963.074 1.446-.025a.744.744 0 0 1 .488.111c.092.06.2.098.307.086.278-.031.432.082.535.283a.86.86 0 0 0 .173.236c.214.198.187.428.074.631-.194.347-.37.7-.649 1.017-.26.296-.433.646-.722.932-.335.333-.659.674-.989 1.012-.03.03-.07.052-.118.027-.052-.027-.034-.065-.022-.105.044-.157.263-.24.247-.42.013-.004.027-.006.038-.013.007-.004.007-.016.01-.024l-.043.041c-.316.107-.531.341-.738.534-.361.336-.783.61-1.16.926-.377.316-.77.62-1.272.805-.212.078-.338.274-.561.359-.381.144-.71.39-1.17.375-.145-.004-.294.086-.44.133-.147.047-.29.128-.44.134a2.09 2.09 0 0 0-.848.214c-.066.033-.163.076-.215.016-.06-.07.049-.111.1-.146.123-.082.26-.15.385-.228.12-.075.371-.109.139-.305-.032-.026.026-.072.07-.084.605-.178 1.101-.494 1.563-.862.18-.145.401-.253.604-.377.025-.015.065-.04.082-.033.309.13.392-.12.484-.245.149-.202.381-.352.48-.58l-.005.005h.194l-.005-.005c.033.07.067.062.101 0l-.004.004c.181-.102.355-.207.399-.41.01-.044.062-.112.105-.118.328-.047.01-.191.063-.277.052-.009.084-.035.095-.08.052-.009.082-.037.094-.08.053-.008.085-.035.095-.08.053-.008.083-.037.094-.08.013-.005.028-.007.039-.014.006-.004.006-.015.01-.023l-.043.041c-.052.01-.084.036-.095.08-.052.01-.083.037-.095.08-.05.012-.084.036-.095.08-.052.01-.081.038-.094.08-.096-.039-.086-.092-.04-.16.207-.302.517-.534.765-.808.404-.446.739-.926 1.058-1.416.028-.043.066-.115.044-.143-.049-.063-.144-.037-.218-.022a6.195 6.195 0 0 0-1.646.577c-.336.174-.69.32-1.015.505-.57.324-1.128.664-1.694.993-.07.04-.131.093-.141.152-.067.41-.46.653-.7.973-.2.268-.452.51-.681.763-.02.021-.046.04-.056.064-.216.505-.605.928-.91 1.391-.045.068.007.09.08.098.117.013.213-.034.31-.078.07-.031.138-.067.212-.09.176-.053.314-.201.531-.154-.178.126-.316.3-.533.377-.137.05-.294.05-.446.095-.665.197-.982.683-1.346 1.122-.497.598-.942 1.226-1.432 1.83-.462.57-.932 1.135-1.344 1.731a69.142 69.142 0 0 0-1.484 2.222c-.327.516-.703 1.01-.982 1.547-.183.353-.42.679-.67 1.002-.195.254-.336.54-.491.815-.31.552-.612 1.106-.918 1.66-.047.086-.055.096-.185.014-.065-.04-.074-.01-.092.02-.03.044-.084.1-.031.145.196.167.034.318-.023.473-.011.032-.055.06-.11.03-.059-.032.012-.168-.114-.124a.323.323 0 0 0-.175.178c-.109.309-.353.567-.45.88a.535.535 0 0 1-.144.25c-.282.24-.365.579-.612.843-.182.196-.24.487-.309.744-.095.353-.297.672-.403 1.02-.055.181-.245.27-.392.388-.027.021-.109.033-.127.017-.224-.192-.48.03-.721-.046-.114-.036-.244-.02-.31-.137-.026-.044-.073-.063-.146-.073-.35-.045-.46-.166-.344-.401.145-.296.23-.61.384-.9.27-.511.484-1.035.652-1.577.074-.237.162-.48.347-.683l-.005-.003.004.119c.006.104-.05.283.034.293.112.013.11-.158.162-.248.261-.455.357-.955.562-1.424.054-.124.103-.249.162-.37.015-.033.056-.056.085-.083.013.037.028.073.04.11.016.05.025.103.048.15.01.02.05.047.071.043.052-.008.061-.054.053-.089-.027-.114-.113-.22-.079-.344l-.005.004c.119-.088.202-.2.27-.317.016-.028-.01-.074-.016-.112-.03.024-.057.049-.088.071-.035.025-.08.072-.106.066-.07-.019-.067-.085-.05-.13.113-.329.166-.67.347-.985.162-.284.263-.592.393-.889a.858.858 0 0 1 .08-.144c.02-.03.055-.055.083-.082.009.037.033.077.024.11-.07.243-.145.486-.224.727-.018.054-.038.107.035.132.053.018.083-.028.103-.063.254-.457.445-.932.57-1.426.01-.035-.017-.076-.027-.114-.03.024-.06.05-.091.073-.106.078-.13.213-.26.273l.004.004c-.046-.212.09-.383.174-.566.128-.282.258-.563.49-.8.002.026.003.053.008.078.012.055.041.105.107.118.053.01.063-.041.088-.07.223-.274.319-.593.446-.9.018-.042.027-.103-.04-.129-.009-.003-.053.057-.078.09-.197.264-.277.584-.537.819a1.97 1.97 0 0 1 .281-.792c.196-.315.378-.637.565-.956.063-.107.116-.218.107-.342l-.006.005a.563.563 0 0 0 .309-.289c.15-.292.364-.554.55-.828.184-.274.399-.538.55-.827.052-.1.118-.187.192-.27.55-.613.946-1.316 1.54-1.903.236-.232.485-.454.676-.717.035-.05.104-.054.168-.059-.005.026-.013.052-.013.078.003.112-.263.197-.099.289.086.048.17-.153.26-.238.06-.057.088-.138.13-.208.027-.026.066-.049.077-.079.01-.027-.031-.043-.043-.022-.017.031-.02.07-.028.105-.11-.01-.196.047-.29.08.032-.178.181-.288.3-.427.519-.603 1.2-1.079 1.754-1.652.16-.165.298-.386.604-.41.008.045-.01.104.056.122.018.004.085-.052.08-.07-.018-.058-.087-.044-.142-.047.072-.194.268-.317.384-.485l-.005.004c.052-.014.087-.041.102-.086l-.005.005c.367-.075.541-.35.775-.555.334-.294.587-.647.893-.965.361-.375.67-.8.98-1.215.22-.295.484-.555.746-.82.21-.212.444-.415.498-.71.03-.172.325-.26.22-.486-.016-.034.087-.058.152-.064.043-.004.086-.022.128-.034-.038-.012-.076-.036-.114-.035-.234.008-.468.018-.702.033-.089.005-.147.04-.104.13.053.11-.027.138-.134.15-.45.05-.903.077-1.358.09a11.2 11.2 0 0 0-1.295.113c-.237.034-.47.032-.704.04-.16.005-.318.005-.46.07-.321.148-.686.098-1.024.168-.724.152-1.47.087-2.202.13-.814.046-1.639.075-2.462.041-.688-.028-1.38-.005-2.07-.013-.198-.002-.36.032-.516.148-.58.426-1.172.839-1.756 1.26-.67.48-1.351.95-2.06 1.39-.596.37-1.178.753-1.777 1.117-.51.309-1.035.598-1.553.897-.155.09-.307.184-.461.275-1.135.668-2.335 1.248-3.533 1.828-.458.222-.91.47-1.415.618-.429.125-.86.244-1.252.442-.511-.023-1.022.125-1.53.018-.394-.082-.732-.479-.75-.823-.019-.397.053-.796-.06-1.192-.054-.185 0-.372.146-.53.13-.139.2-.296.233-.472.076-.397.334-.743.459-1.127.054-.008.084-.036.094-.08.095-.027.096-.094.095-.161.195-.082.262-.23.284-.4.138-.038.187-.127.188-.241l.096-.081c.082-.032.091-.095.094-.16.038-.02.081-.034.112-.059.042-.033.097-.09.037-.124-.058-.033-.095.034-.117.076-.018.033-.018.074-.026.11-.085.032-.09.097-.095.162-.05.01-.082.038-.095.08-.135.04-.193.123-.19.24-.207.076-.304.208-.284.4-.096.026-.096.093-.095.16-.054.008-.086.035-.096.08-.129-.049-.194-.11-.146-.248.145-.414.382-.785.69-1.124a6.39 6.39 0 0 0 .27-.326c.53-.675 1.031-1.365 1.615-2.01.19-.21.327-.453.556-.64.036-.029.04-.075-.008-.103a.125.125 0 0 0-.086-.011c-.147.046-.297.088-.438.147-.83.344-1.65.709-2.492 1.034-.584.227-1.114.556-1.734.705-.627.15-1.13.46-1.618.794-.154.105-.338.13-.493.218-.873.5-1.827.88-2.746 1.309-.867.404-1.675.882-2.525 1.305-.243.12-.47.267-.718.377-.153.068-.15.32-.34.264-.202-.057-.28.069-.39.118a6.82 6.82 0 0 0-.826.457c-.14.088-.284.167-.44.232-.184.078-.36.153-.458.327-.086.15-.305.182-.44.293-.03.024-.093.035-.05.086.029.034.064.057.12.041.05-.014.118-.058.142.019.006.018-.059.055-.094.08-.128.09-.26.048-.4.018-.236-.053-.46-.175-.723-.097-.025.008-.083-.023-.088-.016-.224.3-.4.055-.608-.023-.235-.089-.417-.235-.628-.349-.49-.262-.714-.652-.726-1.138-.01-.415.019-.824.155-1.226.08-.236.017-.295-.27-.274-.279.02-.573.024-.829.107-.175.056-.365-.04-.519.083-.04.033-.12-.037-.105-.088.026-.09.074-.18.212-.185l.33-.013c.1-.004.197-.033.23-.115.093-.228.315-.302.553-.381.321-.107.632-.237.948-.358.147-.056.29-.13.327-.269.052-.196.216-.332.359-.462.585-.536 1.15-1.088 1.84-1.538.647-.421 1.256-.883 1.89-1.319.28-.193.564-.382.823-.597.114-.094.308-.116.288-.316-.006-.059.134-.143.225-.192a6.412 6.412 0 0 1 1.569-.601c.09-.021.206-.009.255-.084.191-.296.55-.278.862-.322.245-.035.504-.014.755.002.32.02.56.188.74.389.137.155.099.36-.001.534-.18.314-.4.608-.737.819-.337.211-.657.41-.854.757-.125.22-.43.388-.69.532-1.128.627-2.27 1.238-3.458 1.78-.593.271-1.205.516-1.825.739-.577.207-.877.61-1.06 1.061-.186.46-.26.954-.38 1.433-.013.052-.008.107-.008.16 0 .175.02.39.151.481.109.076.345-.053.508-.124.81-.357 1.585-.764 2.363-1.167 1.06-.549 2.104-1.12 3.19-1.634.852-.402 1.68-.838 2.543-1.226.831-.374 1.645-.774 2.47-1.157.78-.364 1.596-.672 2.386-1.02.837-.369 1.7-.684 2.55-1.025.697-.279 1.428-.489 2.125-.771.304-.123.634-.211.953-.31.534-.163.93-.49 1.393-.737.125-.067.09-.154.035-.243a5.274 5.274 0 0 1-.517-1.025c-.115-.32-.207-.64-.172-.978.004-.037.028-.073.043-.11.016.036.042.07.046.106.008.067 0 .134.002.2a.556.556 0 0 0 .152.389c.013-.119.035-.238.037-.357.01-.658.253-1.252.676-1.8.12-.155.265-.297.342-.475.016-.036.038-.078.073-.099.774-.466 1.351-1.134 2.179-1.541.4-.197.692-.533 1.166-.636.083-.018.145-.099.224-.142.194-.108.357-.263.618-.268a.4.4 0 0 0 .215-.074c.46-.352 1.048-.472 1.606-.646.044-.014.089-.027.13-.046.083-.037.18-.073.151-.175-.03-.104-.137-.09-.23-.094-.078-.002-.157 0-.236 0l.005.005a.209.209 0 0 1 .156-.14c.18-.039.351-.12.547-.105.127.01.291-.166.358-.02.045.099-.203.076-.296.142-.048.033-.106.07-.081.131.024.059.09.075.153.055.165-.053.339-.053.51-.072.18-.02.408-.116.412-.222.013-.304.237-.185.38-.162.268.043.502.02.767-.056.29-.084.625-.068.934-.01.4.075.798.133 1.21.127.48-.007.923.123 1.365.273.855.29 1.588.75 2.315 1.206.318.2.629.437.903.682.326.29.472.696.504 1.095.1 1.213-.388 2.264-1.308 3.183-.028.028-.078.04-.118.06l.004.003zm9.185 8.255c-.005-.013-.007-.027-.016-.037-.005-.006-.02-.006-.032-.008-.006.024.011.038.053.04.004.012.006.025.015.035.005.006.02.006.03.008a120.18 120.18 0 0 1-.05-.038zm-3.217-2.484l-.095.08c-.081.032-.087.096-.093.16l-.096.08c-.08.033-.09.095-.094.16-.012.004-.026.006-.036.013-.007.004-.008.014-.011.022l.042-.04c.083-.031.085-.097.093-.16l.096-.08c.09-.03.09-.095.094-.16.053-.008.082-.037.095-.08.012-.004.027-.007.036-.014.006-.004.006-.016.008-.024l-.039.043zm-7.862 7.613c-.047.01-.082.033-.082.075 0 .032.034.047.045.028.02-.032.022-.071.032-.107.09-.03.096-.094.094-.162.029-.002.059-.001.087-.007.045-.01.08-.035.073-.076-.002-.018-.031-.044-.052-.047-.05-.008-.078.024-.09.061-.008.024-.009.049-.013.073-.09.03-.095.094-.094.162zm-18.573-3.532c.045-.011.08-.034.079-.076 0-.031-.033-.045-.044-.025-.018.032-.02.07-.03.106-.088.03-.095.093-.094.16-.038.02-.08.035-.112.06-.032.024-.054.062.008.08.018.004.06-.018.07-.036.017-.033.02-.072.028-.108h.1c-.017.321-.27.561-.405.842-.062.13-.178.061-.276.066-.023.002-.054.031-.062.053-.085.227-.177.453-.192.694 0 .022.036.098.062.027.089-.242.134-.035.158.012.037.071.037.156.062.232.028.085.083.143.205.107.06-.017.123-.024.182-.042a13.983 13.983 0 0 0 2.525-1.055c.793-.428 1.633-.79 2.403-1.252.582-.35 1.206-.65 1.796-.996 1.005-.59 1.956-1.242 3.005-1.781.263-.135.537-.274.781-.441.683-.466 1.369-.928 2.048-1.397.132-.09.373-.198.333-.307-.048-.129-.294-.176-.48-.21a3.039 3.039 0 0 0-.229-.034 37.159 37.159 0 0 1-1.207-.148 10.308 10.308 0 0 1-3.278-1.054c-.284-.145-.479-.12-.729.013-.25.135-.447.338-.738.42l.004.004c0-.07.023-.126.103-.164.194-.094.325-.249.485-.376.066-.053.191-.128.14-.186-.082-.093-.142.044-.218.07-.192.062-.342.183-.512.276-.333.182-.599.429-.893.643-.293.213-.744.22-.933.546-.258.028-.224.262-.369.374a8.42 8.42 0 0 0-.791.67c-.252.251-.495.518-.516.872-.045.012-.079.035-.08.076 0 .03.032.044.044.024.018-.031.02-.07.03-.104.226-.103.368-.286.56-.42.046-.032.105-.074.16-.011.032.035.016.077-.015.107-.547.53-.955 1.142-1.424 1.718-.486.596-.941 1.21-1.406 1.818-.093.123-.165.259-.338.319v-.166zm-10.136-6.57c.03-.006.064-.007.092-.016.043-.015.094-.045.06-.082-.04-.043-.076.008-.103.032-.02.019-.03.046-.043.07-.013.004-.028.005-.04.011-.006.004-.008.014-.013.022l.047-.038zm26.908 12.585c-.214.073-.305.208-.285.4-.254.089-.372.294-.45.479-.085.2-.285.37-.252.603.194-.139.262-.35.407-.518.144-.166.317-.333.293-.566.2-.08.252-.235.283-.401.013-.005.028-.007.038-.014.006-.005.005-.017.008-.025l-.042.042zm-9.14-14.996c.171-.014.347.038.515-.026.067-.026.127.003.177.03.157.09.328.142.509.194.21.059.372.202.372.42 0 .198-.144.355-.415.425-.114.03-.223.108-.36.055-.062-.023-.08.023-.085.063-.003.025-.002.062.017.075.033.025.08.036.12.054.206.09.205.089.024.223-.07.053-.138.11-.2.17-.059.06-.051.114.029.167.227.151.5.224.762.31.644.209 1.297.386 1.975.518.656.128 1.318.23 1.975.354.461.087.912.008 1.232-.257.575-.474 1.2-.903 1.759-1.39.854-.745 1.743-1.459 2.566-2.23.576-.539 1.078-1.1 1.383-1.78.065-.147.176-.29-.024-.431-.1-.07-.033-.18.027-.208.343-.16.3-.438.262-.678-.043-.272-.155-.54-.274-.798-.363-.782-.991-1.332-1.96-1.595-.292-.08-.597-.13-.874-.26-.198-.092-.433-.039-.652-.033-.043.001-.084.033-.068.08.01.035.037.032.076.02.126-.04.295-.055.298.08.001.09-.184.029-.285.039a1.894 1.894 0 0 1-.282.002c-.055-.003-.043-.03-.038-.074.019-.147-.035-.193-.13-.128-.207.139-.429.155-.665.1-.084-.018-.15.003-.226.016-.568.094-1.134.195-1.669.39-.097.036-.294.034-.265.119.042.125.17-.037.267-.015.03.007.064-.003.094.002.03.004.057.018.086.027-.021.018-.038.043-.064.052a3.5 3.5 0 0 1-.263.085c-.252.07-.518.116-.756.211-.892.357-1.727.802-2.552 1.258-.472.261-.903.572-1.342.873-.681.467-1.248.999-1.697 1.64-.369.526-.389 1.082-.366 1.656.004.095.04.152.192.174.268.039.53.034.795.021zm-20.433 5.678c.03-.01.06-.015.087-.028.49-.242.977-.486 1.467-.726.897-.441 1.732-.96 2.58-1.463.468-.278.846-.639 1.246-.978.105-.09.172-.197.113-.325a.226.226 0 0 0-.212-.138c-.092 0-.137.046-.153.122-.035.165-.192.234-.347.302a6.471 6.471 0 0 0-1.142.673c-.543.386-1.136.713-1.67 1.106-.604.444-1.24.857-1.861 1.284-.049.033-.09.074-.133.113-.027.025-.017.045.025.058zm44.138-.19l-.042-.067c-.026.014-.06.024-.078.043-.345.363-.558.797-.883 1.17a.045.045 0 0 0-.007.039c.01.035.026.07.039.105.027-.012.061-.02.08-.039.252-.256.43-.551.623-.84.092-.137.18-.276.268-.411zm-13.169 7.592c-.021-.026-.034-.058-.054-.062a.109.109 0 0 0-.08.027 2.24 2.24 0 0 0-.365.51c-.018.037-.047.082.001.105.022.01.089-.018.11-.043.15-.17.308-.336.388-.537zm3.52-3.742c-.008-.025-.01-.038-.017-.049-.016-.026-.047-.034-.076-.011-.124.1-.246.201-.366.305-.029.024-.076.058-.031.094.038.031.086.009.122-.016.107-.075.216-.149.318-.23.03-.023.038-.067.05-.093zm8.485-2.307c-.01-.01-.021-.028-.032-.028-.028 0-.062 0-.084.013-.112.062-.142.17-.193.265-.005.01-.001.025.005.036.016.029.042.029.075.006a.583.583 0 0 0 .23-.292zm-9.903 3.75l.135-.202c.023-.035.044-.073.01-.108-.015-.015-.06-.03-.078-.022-.09.038-.151.097-.149.187.001.023.024.045.082.146zm-12.158-9.47c-.085.043-.16.084-.189.159-.019.05.035.06.08.06.099-.002.179-.035.193-.123.004-.025-.048-.057-.084-.095zm5.482 19.807c-.034.025-.077.043-.097.073-.036.056-.058.122.01.174.036.027.085.016.103-.026.03-.071.054-.145-.016-.221zm-8.297-22.664c-.019-.016.01-.073-.049-.061-.02.003-.031.067-.03.103 0 .035.023.07.036.105.052-.038.04-.09.043-.147zm20.266 9.557a.206.206 0 0 0-.025-.026c-.011.018-.025.036-.032.055-.002.006.016.017.024.025l.033-.054zm-5.885-9.586c.003-.013.013-.029.007-.038-.019-.032-.04-.028-.051.012-.003.01.008.023.012.035l.032-.01zm6.34 4.742c.003.008.003.022.01.025.012.005.031.009.043.004.037-.015.032-.032-.013-.04-.012-.002-.027.007-.04.01zm-8.915 11.222c-.011.02-.025.04-.031.061-.002.006.017.017.027.026.011-.02.026-.04.032-.061.002-.006-.018-.017-.028-.026zm29.132-15.745c-.029.012-.055.026-.084.035-.158.047.06.228-.1.24-.171.013-.155.078-.151.179.001.04-.064.093-.114.12-.472.249-.806.62-1.173.96-.284.264-.576.515-.895.75-.299.222-.529.513-.772.784-.19.212-.363.433-.673.535a.418.418 0 0 0-.227.19.5.5 0 0 1-.269.214l.006.004.088-.324a.117.117 0 0 0 .096-.08c.09-.03.091-.095.093-.16.053-.01.083-.037.095-.08l.096-.082c.133-.04.184-.126.189-.239.038-.018.081-.03.113-.055.042-.033.096-.088.038-.123-.056-.033-.095.033-.119.073-.02.032-.019.073-.027.11-.127.043-.186.125-.188.24l-.096.08c-.052.01-.081.038-.095.08-.082.032-.09.095-.094.16-.052.01-.084.036-.096.08-.215.018-.294.177-.415.29-.156.147-.275.327-.537.364-.082.011-.125.072-.17.128-.408.515-.949.951-1.28 1.511-.128.216-.409.2-.592.326-.038.026-.098-.005-.081-.05.036-.1.045-.207.129-.296.097-.103.193-.211.193-.354.055-.008.084-.037.096-.08.086-.031.094-.094.094-.16.055-.007.086-.034.095-.08.054-.009.083-.038.096-.081.084-.031.086-.097.094-.16.148-.073.272-.16.284-.32a.119.119 0 0 0 .094-.08l.096-.082c.04-.03.116-.05.037-.109l-.031.114c-.05.012-.083.039-.096.081a.109.109 0 0 0-.095.08c-.156.068-.272.16-.284.32-.088.03-.093.094-.094.16-.054.009-.085.036-.096.08a.109.109 0 0 0-.095.08c-.089.03-.09.096-.093.16a.114.114 0 0 0-.096.082 2.44 2.44 0 0 0-.564.626c-.21.327-.441.643-.661.966-.073.106-.152.217-.3.239-.487.071-.692.414-.899.713-.149.216-.302.432-.447.651-.122.185-.213.385-.305.583-.06.132.037.225.144.308l-.004-.003c.005.336-.25.596-.384.89a5.041 5.041 0 0 0-.426 1.422c-.03.214.064.442.113.662.016.07.514.293.645.305.49.046.94-.076 1.352-.277.26-.127.521-.247.79-.358.636-.264 1.25-.56 1.847-.883.198-.107.415-.19.617-.292.818-.415 1.63-.837 2.454-1.245.346-.17.752-.268 1.034-.535.049-.046.17-.123.25-.047.161.155.213.093.257-.064.059-.206.234-.305.468-.343.176-.029.299-.13.442-.21.426-.24.794-.568 1.336-.637a.586.586 0 0 0 .362-.177c.22-.25.645-.323.76-.669.086-.254.2-.507.348-.74.55-.863 1.16-1.695 1.956-2.417.066-.244.342-.317.535-.452.17-.12.358-.215.413-.414.02-.074.114-.086.169-.13.114-.092.252-.174.328-.286.218-.319.61-.495.858-.786.08-.093.165-.033.25-.011-.075.13-.16.253-.283.358-.372.315-.734.639-1.106.953-.127.107-.21.224-.224.375a.51.51 0 0 0-.448.242c-.17.273-.398.5-.642.721-.105.095-.161.192-.14.32-.148-.009-.221.07-.295.164-.288.363-.577.725-.877 1.08-.222.263-.378.55-.495.855-.014.038-.04.083.015.104.079.031.093-.028.123-.074.372-.567.703-1.153 1.186-1.666.13-.137.322-.262.338-.466.474-.319.729-.8 1.18-1.138.037-.028.036-.095.052-.144.115-.025.177-.106.254-.17.511-.428.95-.912 1.471-1.332.284-.229.63-.406.869-.664.267-.288.608-.484.945-.694.324-.203.648-.406.912-.667.03-.003.06-.004.087-.01.044-.011.08-.035.073-.077-.004-.018-.035-.043-.056-.045-.05-.006-.078.025-.089.063-.007.023-.006.049-.01.073-.167-.004-.297.073-.42.152-.394.253-.793.502-1.174.769-.427.298-.836.614-1.252.923-.026-.391.204-.623.635-.73a.74.74 0 0 0 .44-.268c.13-.168.386-.24.578-.364.295-.193.59-.389.882-.585.223-.148.485-.23.724-.35.14-.07.24-.012.25.132-.051.01-.083.037-.094.081-.043.006-.088.006-.127.02-.026.009-.01.043.023.037.037-.008.066-.04.098-.061.048-.014.084-.037.096-.081.271.04.44-.204.706-.18.284-.21.719-.187.97-.462.1-.11.322-.097.447-.208.016-.015.076-.022.086-.012.223.23.506.023.747.078.257.058.503.132.774.158.483.047.85.325 1.05.708.047.09.012.154-.027.226-.177.33-.422.62-.717.885-.714.641-1.516 1.196-2.326 1.747-.573.39-1.13.8-1.736 1.153-.698.405-1.353.858-2.087 1.224-.743.37-1.428.821-2.162 1.206-.304.16-.632.304-.921.474-.399.234-.915.387-1.094.838-.014.033-.105.105-.129.02-.059-.218-.16-.142-.286-.053-.118.085-.222.18-.375.235-.189.07-.18.112-.009.275.056.054.08.114.063.184-.02.078-.067.156-.06.232.013.173-.091.358.062.52.15-.133.165-.307.207-.472a.345.345 0 0 1 .047-.113c.028-.041.038-.1.108-.114.01.039.025.077.026.115.003.12-.023.236-.053.355-.102.393.028.766.194 1.129.1.216.368.236.56.223.302-.02.6-.066.898-.19.46-.193.942-.354 1.388-.57.666-.321 1.408-.51 2.056-.868.271-.15.595-.245.909-.324.361-.092.67-.298 1.054-.333.203-.296.613-.28.907-.436.452-.238.892-.482 1.442-.525.071-.005.136-.06.205-.09.595-.26 1.21-.47 1.845-.66.791-.237 1.59-.474 2.346-.792.152-.064.326-.094.494-.125.393-.073.74-.293 1.17-.256.082.007.185-.042.258-.088.404-.253.891-.322 1.353-.437.493-.123 1.005-.18 1.493-.33.223-.07.474-.168.732-.06.012.005.03.003.044.002.1-.006.186-.187.27-.065.089.127-.11.194-.2.275-.078.07-.168.096-.168.24 0 .143-.2.246-.385.311-.91.323-1.85.57-2.794.81-.37.095-.736.22-1.09.35-.475.173-.967.305-1.442.474-.348.124-.7.24-1.049.361-.072.025-.141.07-.216.078-.491.045-.923.252-1.39.363-.608.145-1.16.403-1.733.617-1.219.457-2.379 1.012-3.545 1.555-.226.105-.474.18-.68.314-.096.063-.276.12-.075.262.051.036-.03.083-.082.114a3.08 3.08 0 0 1-1.075.38c-.174.025-.33.074-.493.12-.638.18-1.268.359-1.959.4a4.392 4.392 0 0 1-1.38-.118.828.828 0 0 1-.294-.125c-.5-.388-.982-.792-1.26-1.33-.074-.143-.097-.306-.14-.461-.022-.077-.027-.159-.058-.233-.063-.156-.113-.17-.268-.09-.791.408-1.588.81-2.368 1.233-.237.129-.455.282-.717.378a.335.335 0 0 0-.196.164c-.054.11-.171.157-.288.194-.563.178-1.046.465-1.488.799-.138.104-.307.13-.456.198-.389.179-.735.406-1.092.622-.124.075-.235.186-.42.129-.046-.014-.105.004-.115.043-.055.23-.31.247-.496.327-.459.2-.912.417-1.395.565-.36.11-.752.163-1.144.172-.266.005-.534.04-.794.047-.719.023-1.412-.073-1.865-.642a1.398 1.398 0 0 1-.266-.507c-.108-.417-.264-.842-.065-1.277.038-.084.027-.184.039-.277l-.005.004c.13-.126.188-.318.164-.437-.056-.28.324-.366.3-.604-.026-.257.128-.464.272-.668.214-.303.38-.633.678-.892.064-.056.097-.136.148-.203.355-.464.693-.936 1.105-1.373.385-.41.738-.848 1.07-1.298.336-.459.68-.924 1.12-1.324.054-.049.11-.097.168-.141.043-.033.094-.094.151-.059.07.043.032.124.04.188-.19 0-.276.088-.285.24a.78.78 0 0 0-.382.478c-.277.043-.29.285-.434.427-.23.225-.372.503-.51.777-.082.02-.13.072-.174.128-.29.361-.578.723-.874 1.081-.096.116-.173.241-.334.322-.144.072-.052.25-.162.366-.363.385-.595.837-.856 1.274-.29.487-.598.969-.816 1.482-.131.308-.187.64-.27.962-.013.047-.009.119.072.121.08.003.074-.068.088-.118.056-.205.098-.415.172-.616.3-.815.749-1.575 1.26-2.306.52-.741 1.08-1.462 1.614-2.197.114-.156.258-.305.275-.502.443-.328.69-.768.95-1.2.218-.11.342-.271.375-.483.127-.053.28-.084.285-.24.236-.245.475-.487.707-.733.035-.038.038-.099.056-.149l-.005.005c.124-.049.196-.127.195-.247l-.007.006c.058-.008.089-.04.102-.085l-.006.006a1.49 1.49 0 0 0 .326-.213c.181-.143.222-.346.37-.498.425-.439.846-.881 1.272-1.32a5.91 5.91 0 0 0 .596-.7l-.006.005c.18-.083.303-.21.406-.357.078-.112.173-.22.356-.209.006.01.01.022.019.031.005.005.016.007.024.01l-.048-.036c.017-.215.193-.349.346-.5.507-.497 1.007-1 1.508-1.502.036-.036.112-.08.069-.126-.051-.054-.108.004-.151.036-.08.06-.135.148-.254.166l.002.001c.034-.247.279-.346.475-.479l-.005-.004c.01.106.032.206.19.098.097-.066.194-.138.194-.26l-.006.007c.057-.01.089-.04.102-.087l-.007.007c.143-.039.19-.131.196-.247l-.007.006c.055-.011.089-.04.102-.086l-.007.005c.179-.012.267-.102.29-.245l-.005.004c.319-.193.582-.428.763-.725l-.005.005c.18-.066.28-.206.408-.32.31-.273.61-.557.914-.835a.278.278 0 0 0 .104-.212l-.006.005c.17-.093.318-.204.458-.33.5-.453.994-.912 1.503-1.356.302-.263.614-.518.887-.804l-.006.006c.364-.229.67-.506.95-.805.42-.256.814-.536 1.135-.883.12-.058.228-.127.283-.241.134-.004.23-.055.285-.16.012-.004.026-.008.037-.015.006-.004.006-.014.009-.022l-.04.042c-.142-.007-.238.046-.285.16-.174.014-.28.084-.283.241-.416.12-.684.4-.989.643-.08.064-.16.13-.151.236-.031.001-.063.005-.094.005-.057-.001-.115.066-.168.007a.102.102 0 0 1 .01-.147c.205-.184.387-.384.58-.576.497-.497 1.075-.923 1.693-1.31.064-.04.13-.076.154-.145.052-.01.086-.035.095-.08.013-.004.026-.006.037-.012.007-.003.01-.013.014-.02l-.045.037c-.048.012-.085.035-.095.08-.132-.001-.228.085-.349.106-.128.022-.253.19-.358.077-.045-.05.166-.168.274-.24.16-.104.341-.186.433-.349l-.005.005c.074-.01.15-.016.189-.085.047-.014.085-.035.096-.08.037-.02.134.03.1-.058-.005-.016-.08.018-.095.062l-.095.08c-.065 0-.129-.002-.193-.003l.001.002c.023-.1.11-.166.202-.207.313-.143.598-.32.888-.492.033-.02.096-.018.1.03.002.036-.032.073-.05.109-.014.004-.029.007-.04.014-.008.004-.01.015-.013.022l.047-.04c.302-.096.536-.304.86-.367.295-.058.294-.069.507.167.073.08.16.14.28.096.102-.038.181-.01.267.024.346.138.365.464.557.69-.122.047.092.312-.222.242-.037-.008-.044.063.003.08.056.02.121.022.182.03.075.009.173-.01.195.072.023.087-.087.093-.143.132-.097.069-.177.16-.285.208a2.263 2.263 0 0 0-1.071.969c-.097.171-.374.2-.461.385-.013.005-.028.008-.038.016-.007.005-.006.016-.009.024l.04-.044.195.005-.005-.004c-.474.492-.963.963-1.543 1.378a24.37 24.37 0 0 0-1.919 1.522c-.596.526-1.235 1.017-1.82 1.552-.648.595-1.288 1.197-1.932 1.796-.41.381-.818.764-1.217 1.153-.396.387-.872.713-1.35 1.032a.399.399 0 0 0-.162.184c-.094.221-.31.362-.52.496-.176.111-.331.212-.431.347l.005-.005zm-3.6 1.688c-.054.009-.079.041-.095.08-.013.005-.027.009-.037.016-.006.005-.006.016-.008.024l.039-.044.095-.08c.012-.006.026-.01.035-.017.006-.004.006-.015.009-.022l-.038.043zm15.914 0c-.05.01-.082.037-.094.08-.233.016-.408.103-.502.29-.01.021-.019.054-.007.068.012.014.066.024.075.015.142-.126.378-.177.428-.377l.095-.08c.013-.005.028-.007.04-.014.006-.004.006-.016.009-.024l-.044.042zm-16.294.4l-.094.081c-.013.005-.027.008-.037.015-.006.005-.006.015-.009.023l.04-.043c.049-.012.084-.036.095-.08.013-.004.029-.005.04-.012.007-.004.007-.016.01-.025l-.045.042zm-.663.722a.117.117 0 0 0-.094.08c-.012.005-.025.009-.034.016-.006.004-.006.014-.01.021l.038-.041.095-.08c.012-.005.026-.009.036-.016.006-.004.006-.015.01-.023l-.04.043zm1.895-2.003c-.054.007-.083.037-.095.08a.115.115 0 0 0-.095.08c-.012.005-.026.008-.035.016-.006.004-.005.015-.006.024l.036-.045c.056-.006.08-.038.094-.08.05-.012.084-.036.096-.08l.095-.08c.013-.006.028-.01.039-.017.006-.005.005-.017.007-.025l-.04.046-.096.08zm-2.558 2.724c-.012.005-.027.008-.037.015-.006.005-.006.016-.009.024l.04-.044c.014-.004.03-.006.04-.013.007-.005.007-.017.01-.026l-.044.044zm-.289.315c.013-.004.028-.006.038-.013.007-.004.007-.016.01-.024l-.042.042c-.014.004-.03.006-.04.014-.008.004-.006.017-.008.027l.042-.046zm10.33-10.252a.112.112 0 0 0-.094.08l-.095.08-.094.081c-.012.005-.025.009-.035.016-.006.004-.005.014-.008.022l.037-.043c.052-.009.083-.036.094-.08.05-.012.085-.036.095-.08a.102.102 0 0 0 .095-.08c.05-.012.086-.035.096-.081a.111.111 0 0 0 .093-.08c.052-.01.085-.035.095-.08l.095-.08.095-.08c.014-.004.029-.006.04-.012.008-.004.009-.016.012-.025l-.047.042-.094.08-.095.08c-.053.009-.082.037-.095.08l-.094.08c-.05.011-.083.037-.095.08zm-1.041.962l-.095.08-.095.08a.118.118 0 0 0-.095.08l-.094.08-.095.08c-.011.006-.024.01-.034.017-.005.005-.005.015-.008.022l.036-.043c.053-.008.08-.04.095-.08.05-.012.085-.035.095-.08.053-.009.085-.035.095-.08l.095-.08c.047-.013.082-.037.094-.08.012-.005.026-.007.037-.014.006-.004.007-.014.01-.022l-.041.04zm-1.042.962c-.05.01-.082.037-.095.08a.11.11 0 0 0-.095.08c-.05.011-.084.035-.095.08-.054.007-.08.04-.094.08l-.095.08c-.152.07-.264.166-.283.32-.014.004-.029.006-.04.012-.007.004-.009.015-.013.023l.047-.04c.145-.074.276-.158.283-.32.054-.008.083-.037.095-.08.055-.006.086-.034.095-.08.053-.008.085-.035.095-.08.052-.009.086-.033.095-.08.054-.007.076-.041.094-.08l.096-.08c.059-.043.12-.081.174-.127.025-.022.09-.05.03-.085-.017-.01-.079.02-.11.042-.062.043-.083.107-.089.174l-.095.08zm7.105-7.533c-.015.004-.031.005-.043.012-.007.004-.007.017-.01.026l.047-.043c.014-.004.029-.006.04-.012.007-.004.008-.015.012-.023l-.046.04zm.663.4c-.05.012-.082.038-.095.08-.075.007-.151.012-.19.08-.172.015-.279.085-.283.241-.23.03-.37.157-.474.32-.055.008-.085.036-.095.081-.078 0-.148.016-.19.078l-.095.082c-.011.004-.023.007-.033.013-.006.004-.01.011-.014.017l.043-.034.096-.08c.07-.013.15-.012.187-.08.047-.015.086-.036.096-.081.23-.03.355-.172.473-.32a.49.49 0 0 0 .284-.242c.077-.002.154-.005.19-.079.049-.011.083-.036.094-.08.014-.004.03-.006.04-.012.008-.004.01-.016.013-.024l-.047.04zm-4.737 4.408c-.051.01-.083.037-.094.08-.053.01-.085.036-.095.08-.014.004-.03.005-.042.012-.007.004-.007.016-.01.025l.046-.041c.052-.01.08-.04.095-.08l.095-.08.032-.016c.005-.004.007-.013.01-.02l-.037.04zm-6.915 6.491a.117.117 0 0 0-.095.08l-.095.08-.095.08c-.011.006-.024.01-.033.018-.006.005-.006.014-.009.02l.037-.042c.053-.01.082-.038.094-.08.052-.01.082-.038.095-.08l.095-.08.096-.082c.012-.005.026-.008.036-.015.006-.005.005-.016.007-.024l-.037.044c-.053.01-.085.037-.096.081zm-1.042 1.042a.12.12 0 0 0-.095.08c-.013.005-.027.008-.037.015-.006.004-.006.015-.009.023l.04-.043c.048-.012.085-.035.095-.08.013-.004.029-.006.039-.013.006-.005.005-.017.007-.026l-.04.044zm2.179-2.164a.117.117 0 0 0-.095.08c-.013.005-.026.008-.036.014-.007.005-.007.015-.01.023l.04-.041.095-.08c.012-.006.025-.01.035-.017.005-.005.005-.015.008-.023l-.037.044zm-.758.722c-.013.004-.028.007-.038.014-.006.004-.006.015-.008.024l.04-.043c.012-.005.027-.007.037-.014.006-.004.007-.015.01-.023l-.041.042zm.378-.401c-.025.025-.062.048-.072.077-.009.026.028.04.04.018.016-.03.018-.066.027-.1.014-.003.029-.005.04-.01.008-.004.01-.016.014-.024l-.049.039zm-5.4 5.69c-.045.024-.112.068-.053.097.043.02.037-.064.048-.102.012-.004.026-.006.036-.013.006-.004.007-.013.011-.02l-.041.038zm-4.641 5.689c-.046.011-.08.035-.079.077.001.032.034.045.044.025.018-.032.02-.07.03-.107.013-.004.03-.006.04-.013.006-.005.005-.018.008-.027l-.043.045zm7.2-8.494c-.049.022-.117.068-.056.095.048.022.04-.061.05-.1.012-.004.025-.006.036-.012.006-.003.007-.013.011-.02l-.041.037zm14.679 1.037c.037-.02.078-.036.11-.06.018-.013.035-.051.026-.059-.039-.038-.084-.022-.105.015-.019.032-.019.072-.027.108-.041.006-.087.007-.124.022-.023.01-.008.039.029.04.05 0 .077-.028.09-.066zm1.305-1.754c-.013-.048-.04-.076-.098-.066-.45.072-.809.34-1.258.42-.173.032-.105.243-.238.327-.1.063-.191.137-.293.199-.522.317-1.003.68-1.521.998-.438.27-.787.653-1.34.786-.084.02-.15.094-.22.147-.454.35-.822.77-1.245 1.145-.084.075-.135.179-.189.274-.016.029-.01.085.014.11.038.036.09.003.107-.03.068-.132.21-.21.344-.261.371-.143.763-.25 1.014-.549.296-.027.408-.235.567-.402.077-.082.184-.144.282-.21.635-.43 1.336-.787 1.941-1.25.105-.081.173-.19.296-.252.122-.06.247-.113.394-.124.222-.016.075-.244.237-.304.444-.165.622-.589 1.047-.776.077-.034.152-.097.16-.182zm-23.947 10.944c.053-.008.07-.042.086-.08.1-.247.182-.495.33-.732.11-.174.113-.403.222-.595.013-.023-.018-.08-.048-.101-.075-.054-.102.006-.126.052-.114.216-.243.428-.334.652-.09.222-.143.456-.207.685-.014.05-.005.106.077.119zm15.987-5.706c.108-.015.565-.518.584-.649.004-.022-.02-.047-.035-.069-.002-.002-.035.003-.041.01-.166.22-.462.357-.55.625-.012.036-.019.072.042.083zm8.87-5.243c-.026-.031-.07-.064-.108-.036-.09.067-.203.134-.244.222-.046.101-.316.133-.176.252.094.08.224-.09.332-.15.084-.048.135-.14.194-.215.013-.017.002-.048.002-.073zm-9.433-6.46l.153-.138c-.018-.012-.04-.038-.053-.035a.2.2 0 0 0-.144.128c-.004.008.025.026.044.044zm-2.835 2.594c.024-.012.059-.019.069-.036.01-.016-.008-.043-.014-.065-.023.015-.047.029-.068.045-.03.023-.025.043.013.056zm-3.34 3.273c-.01.002-.024.003-.028.009-.007.01-.014.025-.009.033.018.029.037.024.047-.011.003-.01-.007-.02-.01-.031z"/><path d="M187.875 13.787c.076-.161.207-.29.337-.422.425-.435.842-.875 1.272-1.306.077-.076.153-.169.284-.196h.001c-.076.277-.373.423-.538.648-.056.076-.14.136-.128.236l.006-.005c-.099 0-.192.022-.242.096-.22.319-.563.555-.8.861-.05.063-.112.086-.194.087l.002.001zm5.301-5.291c.019.114-.066.187-.15.258-.074.064-.137.13-.134.226l.006-.004a.496.496 0 0 0-.291.245l.007-.005c-.054.012-.088.04-.102.086l.007-.006c-.134.043-.198.126-.196.247l.007-.007c-.057.01-.09.039-.102.087l.006-.006c-.07.005-.133.08-.21.021-.094-.071-.008-.119.044-.156.408-.298.655-.726 1.113-.982l-.005-.004zm-6.626 6.734c.23-.45.574-.827 1.042-1.12l-.005-.005c-.014.05-.01.117-.047.148-.268.223-.476.482-.685.744-.075.095-.165.194-.31.23l.005.003zm9.658-9.538c-.19.4-.628.618-.95.921-.03.028-.061.022-.072-.014-.007-.024-.009-.056.005-.074.062-.076.114-.168.2-.219.248-.148.45-.327.61-.544.044-.059.128-.072.211-.067l-.004-.003zm-9.942 10.096c-.046.008-.092.021-.138.021-.144 0-.13.285-.29.152-.09-.077.125-.189.209-.276.155-.16.302-.33.503-.455l-.005-.003v.246l.006-.006a.117.117 0 0 0-.102.085l.007-.006a.267.267 0 0 0-.195.247l.005-.005zm-12.22 6.812c-.181-.009-.267.117-.387.195-.036.023-.087.049-.12.012-.034-.036.015-.068.044-.092.196-.169.392-.338.594-.501.047-.038.113-.13.182-.046.037.044-.027.125-.089.162-.117.07-.233.135-.23.274l.006-.005zM151.968 9.938c-.02.306-.348.408-.551.592-.028.025-.065.02-.077-.01-.009-.021-.01-.057.006-.07.2-.177.304-.44.627-.508l-.005-.004zm45.666-5.525c.091-.234.268-.38.569-.4l-.006-.005c-.066.15-.307.212-.285.406l.006-.006h-.29l.006.005zm-38.751 36.778c-.044.154-.081.31-.134.46-.016.045-.07.1-.142.06-.03-.018-.061-.076-.05-.1.082-.154.12-.336.332-.415l-.006-.005zM203.2 11.72c-.08.023-.137.044-.197.055-.027.005-.076-.002-.084-.016-.029-.049.031-.054.064-.068.097-.044.191-.09.292-.125a.153.153 0 0 1 .163.048c.016.018.028.051.018.07-.026.05-.066.086-.144.06-.042-.015-.088-.019-.112-.023zm-36.832 1.343c-.011.214-.236.296-.374.431-.028.027-.063.022-.073-.011-.007-.022-.006-.057.01-.07.144-.12.253-.269.44-.346l-.003-.004zm28.515-6.169c-.054.222-.195.37-.475.4l.005.003c.055-.22.31-.271.472-.4l-.002-.003zm-29.273 6.735c.042-.014.085-.04.127-.038.057.003.061.058.034.08-.147.12-.208.317-.446.354l.006.004c.027-.083.108-.15.094-.245l-.006.006a.13.13 0 0 0 .102-.086l-.007.005.101-.085-.005.005zm24.635-2.245c-.008-.167.152-.254.25-.37.009-.009.063-.003.078.01.017.014.029.057.018.067-.113.1-.123.29-.351.289l.005.004zm-36.477-2.648c-.06.109-.142.2-.287.23-.039.007-.085-.013-.128-.02.017-.033.028-.07.052-.097.093-.105.225-.123.368-.108l-.005-.005zm-2.575 1.992a.51.51 0 0 1-.16.272c-.012.012-.05.01-.074.007-.008 0-.02-.02-.021-.031-.01-.113.062-.198.142-.277.011-.012.053-.005.079 0 .012.001.02.017.034.03zm.97-.946c.005-.012.007-.028.017-.037.11-.106.184-.248.38-.262.01 0 .03.024.028.026-.112.126-.205.273-.43.268l.005.005zm9.473 20.029c-.058-.004-.136.007-.14-.061-.003-.05.033-.1.047-.15.02-.067.06-.155.131-.14.078.018.048.108.023.17-.025.062-.045.124-.067.186l.006-.005zm25.773-13.041c.046.022.078.053.058.092-.035.073-.085.143-.18.164-.063.014-.068-.035-.065-.072.009-.1.062-.17.187-.184zm-4.246 3.54c.02.023.054.045.049.056a1.26 1.26 0 0 1-.113.21c-.019.027-.08.062-.102.055-.055-.02-.03-.067-.007-.1.053-.075.07-.172.173-.221zm-133.6 4.778c.09 0 .181-.006.27 0 .034.003.09.06.025.063-.16.008-.317.198-.481.013l-.004.004c.076-.011.163-.003.196-.085l-.006.005z"/><path d="M187.592 14.11c.026-.15.048-.303.283-.323h-.002c-.004.164-.122.256-.286.318l.005.004zm3.454-3.437l-.233.181c-.03.024-.056.02-.072-.01-.005-.011-.012-.025-.007-.035.042-.102.134-.165.245-.21.01-.005.03-.002.041.002.04.014.044.036.026.072zM153.773 8.74c.006-.037-.001-.081.02-.11.052-.072.1-.155.221-.16.007 0 .022.02.021.029-.008.085-.09.128-.153.18-.031.025-.076.038-.114.057l.005.005zm18.657 14.82c-.037.109-.142.165-.243.22-.017.01-.053-.006-.08-.01.006-.021.005-.048.02-.063.083-.076.167-.153.308-.142l-.005-.004zm24.254-18.348c.036-.108.138-.166.242-.22.018-.009.053.007.08.011-.005.022-.002.049-.017.063-.08.08-.166.155-.305.146zm-3.029 3.043c-.06.012-.12.02-.178.036-.061.019-.091-.007-.082-.048a.156.156 0 0 1 .152-.126c.112-.002.094.082.103.143l.005-.005zm-47.499 10.101c-.045-.003-.09-.001-.134-.01-.025-.004-.046-.023-.068-.036.025-.01.05-.029.078-.031.074-.006.15-.01.224-.007.025 0 .069.02.07.034.006.044-.037.054-.08.055-.03 0-.06-.003-.09-.005zm45.222-8.096a.213.213 0 0 1-.11.205c-.04.024-.084.043-.12.002-.01-.012 0-.048.015-.065a.412.412 0 0 1 .217-.14l-.002-.002zM15.267 38.165c-.016.06.029.127-.05.168-.01-.05-.026-.099-.03-.148-.003-.05-.02-.135.035-.139.056-.004.036.077.045.12zm-.185.559c.01-.043-.013-.098.062-.117.012.049.035.098.033.147-.001.048-.028.096-.044.144-.066-.048-.042-.114-.05-.174zM197.35 4.653c.05-.118.159-.186.284-.24l-.006-.005c.003.162-.08.252-.283.241l.005.004z"/><path d="M172.714 23.401c-.05.11-.143.166-.284.16l.005.004c.048-.113.146-.162.285-.16l-.006-.004zm-41.921.289c.017.017.044.031.047.049.01.061.02.124-.036.177-.014-.017-.04-.032-.041-.05-.008-.06-.031-.123.03-.176zm37.852-1.731c-.043-.008-.1-.003-.127-.025-.044-.034 0-.07.035-.092.077-.049.141-.035.184.04l.005-.005-.102.086.005-.004zM44.92 9.137c-.046.114-.141.166-.283.16l.006.005c.045-.116.144-.163.283-.16l-.005-.005zm118.51 6.335c.03.003.06.004.088.009.047.009.083.033.074.076-.004.018-.034.043-.056.047-.052.008-.078-.023-.089-.063-.006-.024-.007-.05-.011-.074l-.006.005zm33.066-10.018c.001-.115.049-.204.188-.242.015.124-.063.196-.19.24l.002.002zM173.282 23c-.021.033-.037.07-.066.099-.04.037-.105.082-.148.03-.04-.051.038-.085.087-.105.04-.016.088-.014.132-.02l-.005-.004zM152.157 9.777c.006.113-.054.168-.19.16l.006.005c-.003-.11.058-.164.19-.16l-.006-.005zm46.046-5.764c0-.026 0-.053.004-.078a.13.13 0 0 1 .105-.116c.015-.005.057.018.06.032.01.06-.046.092-.093.124-.023.016-.054.023-.082.033l.006.005zM92.287 14.19c.055 0 .122-.01.142.046.005.016-.06.072-.08.068-.066-.015-.055-.072-.057-.119l-.005.004zm78.691 10.214c-.013-.017-.041-.038-.037-.052.01-.037.045-.06.094-.046.012.003.03.017.03.024-.007.041-.04.063-.087.074zm25.515-18.953c-.02.09-.096.133-.19.16l.005.004c-.008-.113.048-.172.188-.161l-.003-.003zm-65.595 17.982c-.014-.02-.035-.04-.038-.06-.004-.023.004-.065.017-.068.065-.015.049.036.05.061.001.022-.019.044-.03.067z"/><path d="M172.72 23.406c.008-.036.01-.075.028-.107.01-.018.051-.04.069-.034.062.017.04.055.007.08-.03.023-.073.038-.11.056l.006.005zm-8.457-8.429c.004.042-.024.067-.068.071-.015.002-.05-.028-.048-.034a.17.17 0 0 1 .05-.054c.03-.022.054-.015.066.017zM50.321 25.003c-.027.047-.071.082-.134.079-.037-.002-.071-.027-.107-.042.024-.012.047-.032.073-.034.057-.004.115 0 .173.002l-.005-.005zm100.415-13.542c0 .038.003.076-.002.114-.004.03 0 .075-.056.07-.013 0-.03-.042-.03-.064.001-.054.03-.096.094-.116l-.006-.004zM19 30.774c-.026.016-.049.06-.092.022-.01-.009-.004-.046.01-.059a.097.097 0 0 1 .07-.02c.04.007.043.03.012.057zM157.366 7.038c-.014-.015-.044-.036-.04-.046a.083.083 0 0 1 .096-.052c.01.002.024.018.025.028.004.047-.03.065-.08.07zm36.663.656c.01-.035.014-.072.033-.104.01-.017.052-.037.07-.032.064.019.034.058.007.082-.029.025-.07.04-.105.059l-.005-.005zm.856-.798c.021-.063.064-.13.14-.126.058.004.047.079.045.128l.006-.005h-.193l.002.003zM48.994 25.249c.046-.002.092-.007.138-.004.038.003.091.001.085.05-.001.012-.05.027-.078.027-.065.002-.117-.022-.14-.078l-.005.005zm144.94-17.474c-.008.036-.01.074-.027.107-.01.018-.05.04-.068.035-.06-.017-.04-.056-.009-.08.03-.025.072-.04.109-.058l-.005-.004zM39.047 15.953c.054.007.13-.015.138.06.002.015-.04.05-.06.05-.093-.003-.059-.071-.072-.115l-.006.005zM158.89 41.196c.006-.036.007-.075.024-.108.01-.021.043-.01.045.023.002.041-.032.066-.076.08l.006.005zM62.073 18.352c-.042-.007-.086-.007-.123-.022-.024-.009-.009-.036.028-.038.05-.002.074.029.09.064l.005-.004zm59.334-2.832c-.014.004-.03.014-.041.011-.045-.009-.05-.027-.012-.044.01-.005.031-.001.043.004.007.004.007.019.01.028zm-75.534 7.484c.017-.038-.028-.105.062-.105.01 0 .019.068.029.105l.005-.004h-.102l.006.004zm20.556-7.372c.062-.093.125-.091.187 0l.005-.004h-.197l.005.004zm80.115 2.745c-.01.002-.029.01-.031.007-.008-.01-.017-.023-.015-.033.01-.038.032-.042.05-.01.006.008-.002.023-.004.036zm-18.847 3.417c-.004.011-.005.028-.013.032-.026.011-.042-.003-.036-.036.002-.01.018-.018.027-.027l.022.031zm-81.272.636c.023-.034-.002-.103.08-.09.018.003.024.062.036.096l-.014.01a.573.573 0 0 0-.072.005l-.03-.02zm22.354-4.095l-.034.06c-.01-.01-.029-.02-.027-.027.007-.021.021-.04.032-.06l.029.027zM201.044 1.043c-.042-.016-.119.022-.121-.05 0-.009.078-.018.12-.027l-.002-.002-.002.084.005-.005zM44.637 9.296c-.03.023-.057.055-.092.064-.032.008-.05-.025-.026-.034.038-.015.082-.017.124-.024l-.006-.006zm127.845 7.892c.01.02.022.04.027.06.001.006-.02.016-.03.023-.01-.02-.021-.04-.026-.06-.001-.006.019-.016.03-.023zm-135.04-.355c.013-.04.043-.068.094-.066.039.002.054.03.03.04-.039.015-.085.016-.129.022l.005.004zm113.111-6.564l.049.042c-.026.007-.052.018-.08.021-.008.002-.02-.016-.03-.025l.06-.038zm8.571-3.734c-.01.008-.023.024-.03.022-.023-.005-.045-.016-.067-.025.01-.008.021-.023.028-.022.024.006.046.017.069.025zm-8.287 4.769c.008-.035.01-.072.026-.104.01-.02.049-.006.04.022-.01.029-.047.052-.072.078l.006.004zM36.206 24.923c-.016.038-.044.068-.093.067-.038 0-.053-.029-.028-.038.038-.015.084-.017.126-.024l-.005-.005zM18.023 32.06c.013-.039.002-.123.046-.103.061.027-.001.074-.052.098l.006.005z"/><path d="M150.83 11.3c-.004.065-.004.132-.094.161l.006.004c.001-.066.004-.132.095-.161l-.006-.004zM46.014 8.458c.01.007.028.017.027.022-.007.02-.02.037-.03.055-.01-.007-.027-.017-.026-.023.007-.02.02-.037.029-.054zm112.969 27.605c-.045-.012-.079-.036-.077-.077.001-.032.034-.045.045-.025.018.032.019.07.027.106l.005-.004zM46.518 8.251c-.005.012-.006.03-.015.034-.03.012-.047-.003-.04-.038 0-.01.019-.018.029-.027l.026.031zm84.47 14.785c.01.01.029.02.027.027-.006.021-.02.041-.031.062-.01-.01-.03-.02-.028-.026.007-.022.02-.042.032-.063zM16.595 34.3c-.01.038.004.123-.046.102-.062-.026 0-.075.052-.098l-.006-.005zm.27-.413l-.032.056c-.008-.009-.025-.02-.023-.026.006-.02.02-.038.03-.056l.025.026zm.205-.389c0 .067.001.134-.095.16l.006.004c0-.066-.007-.135.094-.16l-.006-.004zm142.95-.241c-.007.036-.008.075-.025.106-.01.02-.044.008-.046-.024-.002-.042.03-.067.076-.078l-.005-.004zm24.345-13.943l-.041.042c.003-.008.003-.02.01-.024.01-.006.025-.009.037-.013l-.006-.005zm.006.005l.043-.043c-.003.009-.003.02-.01.024-.01.007-.025.01-.039.014l.006.005zM34.88 18.673c-.01.045-.04.073-.095.08l.005.004c0-.028-.002-.055-.003-.082l.098.002-.005-.004zm-.095.08c-.012.043-.046.069-.095.08l.004.005.096-.081-.005-.004zM20.669 28.69l-.04.04c.003-.007.004-.017.01-.021.01-.007.024-.01.036-.014l-.006-.005z"/><path d="M20.675 28.695l.041-.04c-.003.007-.005.017-.011.021-.01.007-.024.01-.036.014l.006.005zm4.922-4.811a.627.627 0 0 0-.047-.041c.01.002.024.002.03.008.01.008.013.02.019.032l-.002.001zM157.846 37.91l.044-.044c-.002.009-.001.022-.008.027-.01.007-.027.009-.04.013l.004.003zm-62.149-.642l.05.04c-.011-.003-.026-.003-.03-.01-.009-.009-.01-.022-.015-.034l-.005.004zm-80.111-.604l.025-.008-.004.02zm1.015-2.36l.043-.042c-.003.008-.003.02-.01.024-.01.007-.026.01-.039.013l.006.005zm.374-.646l-.042.043c.002-.008.002-.02.009-.025.01-.007.025-.01.039-.014l-.006-.004zm.1-.155l.043-.044c-.003.009-.003.02-.01.025-.01.007-.026.01-.039.014l.006.005zm.657-1.047l-.042.041c.004-.008.004-.019.01-.023.01-.007.025-.009.038-.013l-.006-.005z"/><path d="M17.738 32.461l.041-.043c-.003.008-.003.02-.009.024-.01.007-.025.01-.038.014l.006.005zm.279-.406l-.043.04c.004-.008.005-.019.012-.023.01-.006.024-.008.037-.012l-.006-.005zm163.985-9.772l.044-.043c-.003.01-.002.022-.008.026-.01.008-.026.01-.04.014l.004.003zm-1.704 1.198a103.17 103.17 0 0 1-.049-.039c.01.003.024.003.03.009.008.01.01.023.014.034l.005-.004zm-7.011-.476l.045-.043c-.003.008-.003.02-.01.025-.01.007-.026.01-.04.013l.005.005zm.947-.402c.03-.066.061-.068.092 0l.004-.003h-.101l.005.003zm15.534-10.74l.038-.053c.053.05-.013.041-.037.054l-.001-.001zm.472-.483l-.044.041c.004-.008.004-.019.01-.023.011-.007.026-.01.04-.014l-.006-.004zm1.615-1.598l.044-.042c-.003.009-.003.02-.01.025-.01.007-.026.009-.04.013l.006.004zM44.926 9.141l.046-.041c-.004.008-.004.02-.01.024-.012.007-.028.009-.041.013l.005.004zM193.18 8.5l.049-.042c-.004.009-.004.022-.01.026-.012.007-.029.008-.043.012l.005.004zM38.674 13.063l-.05-.037c.01.003.025.002.03.008.008.01.01.022.015.034l.005-.005zm.474-.32l-.051-.039c.01.003.026.002.031.008.009.01.01.023.015.035l.005-.004zm152.986-.156l.05.039c-.01-.003-.023-.003-.029-.01-.008-.009-.01-.022-.016-.034l-.005.005zm4.169-6.977c-.01.046-.041.073-.095.082l.004.003c.01-.046.04-.074.096-.08l-.005-.004zm1.042-.96l-.035.058c-.057-.055.014-.043.04-.055l-.005-.004zm5.688-1.52l.035-.054c.053.054-.02.038-.04.05l.005.005zM46.72 8.175v.085l.006-.004c-.08-.025-.08-.05 0-.076l-.006-.005zm.006.005l.043-.042c-.003.008-.003.02-.01.024-.01.007-.026.01-.039.013l.006.005zm147.213-.401c.008-.045.037-.074.09-.085l.005.005c-.013.044-.047.069-.1.076l.005.004zm.469-.485l-.043.041c.003-.008.003-.02.01-.024.01-.007.025-.01.038-.014l-.005-.003zm-36.756-.402l-.045.041c.004-.008.004-.02.011-.023.011-.007.026-.01.04-.013l-.006-.005zm27.945 9.377l-.042.042c.003-.008.003-.02.01-.024.01-.007.025-.01.038-.014l-.006-.004zm.095-.08c-.012.043-.044.07-.095.08l.006.004c.013-.042.043-.07.094-.08l-.005-.004zm.005.004l.046-.043c-.003.009-.003.02-.01.025-.011.007-.027.01-.041.014l.005.004zm-13.362 1.518l-.044.045c.003-.01.002-.022.008-.026.011-.008.027-.01.041-.014l-.005-.005z"/><path d="M172.34 17.716l.046-.04c-.004.008-.005.02-.012.023-.011.007-.026.009-.04.012l.006.005zm-54.097-.485c-.026.066-.059.068-.097.006l.012-.009.091.007-.006-.004zm.011-.085c.06.034.063.063-.01.085l.005.004a.301.301 0 0 0-.01-.075l.015-.014zm-80.913-.236l-.043.039c.004-.007.006-.017.012-.02.01-.007.025-.01.037-.014l-.006-.005zm.096-.08c-.01.044-.046.068-.096.08l.006.005c.014-.043.044-.07.095-.082l-.005-.004zm150.245-.241l-.046.04c.003-.008.004-.02.011-.024.011-.006.027-.008.04-.012l-.005-.004zm-22.547-2.404a.113.113 0 0 1-.094.08l.006.004c.013-.041.044-.068.094-.079l-.006-.005z"/><path d="M165.14 14.19c.014-.042.044-.07.095-.08l-.005-.005c-.011.044-.044.07-.095.08l.006.005z"/><path d="M165.325 14.025c-.011.043-.043.07-.095.08l.005.005c.012-.044.044-.071.096-.081l-.006-.004zm-121.395.023l.012.025-.029-.003zm.234-.102c-.005.034-.022.047-.05.04.003-.009.004-.022.01-.026.013-.007.03-.008.044-.011l-.004-.003z"/><path d="M44.168 13.949v-.084l-.005.003.07.039-.07.039.005.003zm-6.732-.164l-.04.041c.003-.007.003-.018.01-.022.01-.007.024-.01.036-.014l-.006-.005zm46.14.004c.03-.061.06-.066.091 0l.005-.004h-.102l.006.004z"/><path d="M37.442 13.79l.044-.04c-.004.007-.005.018-.012.022-.01.006-.025.008-.038.013l.006.005zm7.29-.166c-.03.064-.06.073-.092.001l-.003.003h.1l-.005-.004zm.288-.239c.083.03.07.055-.004.08l.005.004-.004-.082.002-.002zm120.021.88l-.043.043c.003-.008.002-.02.009-.024.01-.008.026-.01.04-.015l-.006-.004zm-80.617 1.443l-.046.042c.002-.009.002-.022.009-.026.011-.007.027-.008.042-.012l-.005-.004z"/><path d="M84.429 15.712l.047-.043c-.003.01-.003.022-.01.027-.011.007-.028.008-.042.012l.005.004zm76.804-8.085c-.004.013-.003.027-.011.037-.092.118-.224.124-.366.086-.052-.015-.062-.075-.022-.089.11-.038.23-.06.348-.083.012-.002.034.032.051.05zm-.846.153c.02.016.058.036.055.045-.027.07-.097.097-.177.1-.059.002-.118-.01-.177-.017.015-.018.025-.044.046-.053.08-.035.152-.09.253-.074zm5.417 3.35c-.015.053.016.121-.071.121-.028 0-.083-.055-.077-.074.018-.056.03-.123.114-.145l.034.098zm-14.026 5.78c-.032.092-.12.144-.2.202-.035.025-.087.043-.114.003-.012-.018.02-.065.045-.09a.331.331 0 0 1 .274-.11l-.005-.005zm.096-.08c-.012.044-.043.07-.096.08l.005.004c.011-.044.043-.071.095-.08l-.004-.004z"/></svg>